<?xml version="1.0" encoding="UTF-8" standalone="no"?>
<!DOCTYPE svg PUBLIC "-//W3C//DTD SVG 1.1//EN" "http://www.w3.org/Graphics/SVG/1.1/DTD/svg11.dtd">
<svg viewBox="0 0 383 433" version="1.1" xmlns="http://www.w3.org/2000/svg" xmlns:xlink="http://www.w3.org/1999/xlink">
  <title/>
  <defs>
    <marker id="arrow-end" markerWidth="6" markerHeight="6" markerUnits="userSpaceOnUse" orient="auto" refX="2%"
            refY="3">
      <polyline points="0,0 6,3 0,6 2,3 0,0" stroke-width="0" stroke="red" fill="red"/>
    </marker>
    <style>g.stroke path:hover {stroke-width: 6;}g.move_to path:hover{stroke-width: 2;}</style>
  </defs>
  <circle cx="50" cy="50" r="5" fill="green" stroke-width="0"/>
  <g class="stroke" stroke="black" stroke-width="1" fill="none" marker-start="none" marker-end="none">
    <path d="M50 50"/>
  </g>
  <g class="move_to" stroke="red" stroke-width="1" fill="none" marker-start="url(#arrow-start)"
     marker-end="url(#arrow-end)">
    <path d="M50 50 L209.44 86.09"/>
  </g>
  <g class="stroke" stroke="black" stroke-width="3" fill="none" marker-start="none" marker-end="none">
    <path d="M209.44 86.09 L210.65 84.31"/>
    <path d="M210.65 84.31 L213.76 79.78"/>
    <path d="M213.76 79.78 L217.98 73.69"/>
    <path d="M217.98 73.69 L222.51 67.24"/>
    <path d="M222.51 67.24 L226.57 61.62"/>
    <path d="M226.57 61.62 L231.15 54.96"/>
    <path d="M231.15 54.96 L235.56 48.09"/>
    <path d="M235.56 48.09 L240.16 41.41"/>
    <path d="M240.16 41.41 L245.28 35.27"/>
    <path d="M245.28 35.27 L251.28 30.06"/>
    <path d="M251.28 30.06 L255.45 27.12"/>
    <path d="M255.45 27.12 L260.04 24.25"/>
    <path d="M260.04 24.25 L264.79 22.07"/>
    <path d="M264.79 22.07 L269.46 21.26"/>
    <path d="M269.46 21.26 L273.79 22.47"/>
    <path d="M273.79 22.47 L277.29 26.01"/>
    <path d="M277.29 26.01 L279.15 30.93"/>
    <path d="M279.15 30.93 L279.69 36.63"/>
    <path d="M279.69 36.63 L279.26 42.49"/>
    <path d="M279.26 42.49 L278.19 47.92"/>
    <path d="M278.19 47.92 L275.16 55.54"/>
    <path d="M275.16 55.54 L270.25 63.51"/>
    <path d="M270.25 63.51 L264.17 71.41"/>
    <path d="M264.17 71.41 L257.62 78.83"/>
    <path d="M257.62 78.83 L251.3 85.33"/>
    <path d="M251.3 85.33 L245.91 90.5"/>
    <path d="M245.91 90.5 L242.17 93.91"/>
    <path d="M242.17 93.91 L240.76 95.14"/>
  </g>
  <g class="move_to" stroke="red" stroke-width="1" fill="none" marker-start="url(#arrow-start)"
     marker-end="url(#arrow-end)">
    <path d="M240.76 95.14 L253.23 277.67"/>
  </g>
  <g class="stroke" stroke="black" stroke-width="3" fill="none" marker-start="none" marker-end="none">
    <path d="M253.23 277.67 L254.08 274.16"/>
    <path d="M254.08 274.16 L259.17 269.73"/>
    <path d="M259.17 269.73 L266.82 265.57"/>
    <path d="M266.82 265.57 L275.38 262.85"/>
    <path d="M275.38 262.85 L283.16 262.79"/>
    <path d="M283.16 262.79 L287.32 264.09"/>
    <path d="M287.32 264.09 L291.45 266.01"/>
    <path d="M291.45 266.01 L295.24 268.53"/>
    <path d="M295.24 268.53 L298.35 271.62"/>
    <path d="M298.35 271.62 L300.46 275.25"/>
    <path d="M300.46 275.25 L301.61 281.22"/>
    <path d="M301.61 281.22 L300.92 287.43"/>
    <path d="M300.92 287.43 L298.87 293.65"/>
    <path d="M298.87 293.65 L295.97 299.65"/>
    <path d="M295.97 299.65 L292.68 305.18"/>
    <path d="M292.68 305.18 L290.11 308.52"/>
    <path d="M290.11 308.52 L287.07 311.29"/>
    <path d="M287.07 311.29 L283.64 313.56"/>
    <path d="M283.64 313.56 L279.9 315.42"/>
    <path d="M279.9 315.42 L275.9 316.94"/>
    <path d="M275.9 316.94 L271.9 317.79"/>
    <path d="M271.9 317.79 L267.25 318.18"/>
    <path d="M267.25 318.18 L262.84 318.27"/>
    <path d="M262.84 318.27 L259.54 318.21"/>
    <path d="M259.54 318.21 L258.25 318.15"/>
  </g>
  <g class="move_to" stroke="red" stroke-width="1" fill="none" marker-start="url(#arrow-start)"
     marker-end="url(#arrow-end)">
    <path d="M258.25 318.15 L269.14 127.92"/>
  </g>
  <g class="stroke" stroke="black" stroke-width="3" fill="none" marker-start="none" marker-end="none">
    <path d="M269.14 127.92 L277.06 126.14"/>
    <path d="M277.06 126.14 L284.38 124.05"/>
    <path d="M284.38 124.05 L291.1 121.68"/>
    <path d="M291.1 121.68 L297.23 119.05"/>
    <path d="M297.23 119.05 L302.79 116.21"/>
    <path d="M302.79 116.21 L307.78 113.19"/>
    <path d="M307.78 113.19 L312.21 110.02"/>
    <path d="M312.21 110.02 L316.1 106.74"/>
    <path d="M316.1 106.74 L319.45 103.38"/>
    <path d="M319.45 103.38 L322.27 99.98"/>
    <path d="M322.27 99.98 L324.57 96.56"/>
    <path d="M324.57 96.56 L326.36 93.16"/>
    <path d="M326.36 93.16 L327.65 89.83"/>
    <path d="M327.65 89.83 L328.46 86.58"/>
    <path d="M328.46 86.58 L328.78 83.45"/>
    <path d="M328.78 83.45 L328.63 80.49"/>
    <path d="M328.63 80.49 L328.03 77.71"/>
    <path d="M328.03 77.71 L326.97 75.17"/>
    <path d="M326.97 75.17 L325.47 72.88"/>
    <path d="M325.47 72.88 L323.54 70.88"/>
    <path d="M323.54 70.88 L321.19 69.22"/>
    <path d="M321.19 69.22 L318.42 67.91"/>
    <path d="M318.42 67.91 L315.26 67"/>
    <path d="M315.26 67 L311.7 66.52"/>
    <path d="M311.7 66.52 L307.75 66.51"/>
    <path d="M307.75 66.51 L303.44 66.99"/>
    <path d="M303.44 66.99 L298.76 68"/>
    <path d="M298.76 68 L293.72 69.58"/>
    <path d="M293.72 69.58 L288.34 71.75"/>
    <path d="M288.34 71.75 L282.63 74.56"/>
    <path d="M282.63 74.56 L276.59 78.04"/>
    <path d="M276.59 78.04 L270.23 82.21"/>
    <path d="M270.23 82.21 L263.57 87.13"/>
    <path d="M263.57 87.13 L256.61 92.81"/>
    <path d="M256.61 92.81 L249.37 99.29"/>
    <path d="M249.37 99.29 L241.94 95.4"/>
    <path d="M241.94 95.4 L234.73 92.24"/>
    <path d="M234.73 92.24 L227.77 89.8"/>
    <path d="M227.77 89.8 L221.07 88.03"/>
    <path d="M221.07 88.03 L214.67 86.92"/>
    <path d="M214.67 86.92 L208.58 86.43"/>
    <path d="M208.58 86.43 L202.82 86.54"/>
    <path d="M202.82 86.54 L197.41 87.22"/>
    <path d="M197.41 87.22 L192.37 88.45"/>
    <path d="M192.37 88.45 L187.73 90.19"/>
    <path d="M187.73 90.19 L183.51 92.41"/>
    <path d="M183.51 92.41 L179.72 95.1"/>
    <path d="M179.72 95.1 L176.39 98.22"/>
    <path d="M176.39 98.22 L173.53 101.74"/>
    <path d="M173.53 101.74 L171.18 105.64"/>
    <path d="M171.18 105.64 L169.35 109.89"/>
    <path d="M169.35 109.89 L168.05 114.46"/>
    <path d="M168.05 114.46 L167.32 119.32"/>
    <path d="M167.32 119.32 L167.18 124.45"/>
    <path d="M167.18 124.45 L167.64 129.82"/>
    <path d="M167.64 129.82 L168.72 135.4"/>
    <path d="M168.72 135.4 L170.45 141.16"/>
    <path d="M170.45 141.16 L172.84 147.08"/>
    <path d="M172.84 147.08 L175.93 153.12"/>
    <path d="M175.93 153.12 L171.71 162.09"/>
    <path d="M171.71 162.09 L163.38 160.85"/>
    <path d="M163.38 160.85 L155.01 162.28"/>
    <path d="M155.01 162.28 L147.68 166.22"/>
    <path d="M147.68 166.22 L142.45 172.5"/>
    <path d="M142.45 172.5 L140.4 180.97"/>
    <path d="M140.4 180.97 L141.08 187.52"/>
    <path d="M141.08 187.52 L144.09 192.25"/>
    <path d="M144.09 192.25 L148.57 195.81"/>
    <path d="M148.57 195.81 L153.67 198.86"/>
    <path d="M153.67 198.86 L158.55 202.06"/>
    <path d="M158.55 202.06 L154.5 205.88"/>
    <path d="M154.5 205.88 L150.44 210.6"/>
    <path d="M150.44 210.6 L146.48 216.11"/>
    <path d="M146.48 216.11 L142.72 222.32"/>
    <path d="M142.72 222.32 L139.23 229.12"/>
    <path d="M139.23 229.12 L136.13 236.41"/>
    <path d="M136.13 236.41 L133.5 244.11"/>
    <path d="M133.5 244.11 L131.44 252.09"/>
    <path d="M131.44 252.09 L130.04 260.27"/>
    <path d="M130.04 260.27 L129.41 268.54"/>
    <path d="M129.41 268.54 L129.62 276.8"/>
    <path d="M129.62 276.8 L130.78 284.96"/>
    <path d="M130.78 284.96 L132.99 292.91"/>
    <path d="M132.99 292.91 L136.34 300.54"/>
    <path d="M136.34 300.54 L140.91 307.77"/>
    <path d="M140.91 307.77 L146.81 314.49"/>
    <path d="M146.81 314.49 L154.14 320.6"/>
    <path d="M154.14 320.6 L146.78 319.89"/>
    <path d="M146.78 319.89 L139.59 322.79"/>
    <path d="M139.59 322.79 L134.33 328.07"/>
    <path d="M134.33 328.07 L132.73 334.51"/>
    <path d="M132.73 334.51 L136.56 340.89"/>
    <path d="M136.56 340.89 L143.76 343.98"/>
    <path d="M143.76 343.98 L151.36 344.37"/>
    <path d="M151.36 344.37 L159.14 343.44"/>
    <path d="M159.14 343.44 L166.91 342.52"/>
    <path d="M166.91 342.52 L174.45 342.99"/>
    <path d="M174.45 342.99 L176.87 349.26"/>
    <path d="M176.87 349.26 L181.66 352.75"/>
    <path d="M181.66 352.75 L187.91 354.13"/>
    <path d="M187.91 354.13 L194.7 354.06"/>
    <path d="M194.7 354.06 L201.11 353.23"/>
    <path d="M201.11 353.23 L204.59 352.44"/>
    <path d="M204.59 352.44 L207.26 351.26"/>
    <path d="M207.26 351.26 L209.56 349.96"/>
    <path d="M209.56 349.96 L211.92 348.78"/>
    <path d="M211.92 348.78 L214.79 347.97"/>
    <path d="M214.79 347.97 L224.17 346.05"/>
    <path d="M224.17 346.05 L232.21 343.61"/>
    <path d="M232.21 343.61 L239.01 340.69"/>
    <path d="M239.01 340.69 L244.65 337.33"/>
    <path d="M244.65 337.33 L249.22 333.56"/>
    <path d="M249.22 333.56 L252.79 329.42"/>
    <path d="M252.79 329.42 L255.47 324.95"/>
    <path d="M255.47 324.95 L257.32 320.18"/>
    <path d="M257.32 320.18 L258.44 315.15"/>
    <path d="M258.44 315.15 L258.92 309.89"/>
    <path d="M258.92 309.89 L258.84 304.45"/>
    <path d="M258.84 304.45 L258.28 298.85"/>
    <path d="M258.28 298.85 L257.33 293.14"/>
    <path d="M257.33 293.14 L256.08 287.35"/>
    <path d="M256.08 287.35 L254.62 281.52"/>
    <path d="M254.62 281.52 L253.02 275.68"/>
    <path d="M253.02 275.68 L251.37 269.88"/>
    <path d="M251.37 269.88 L249.76 264.14"/>
    <path d="M249.76 264.14 L248.28 258.5"/>
    <path d="M248.28 258.5 L247.01 253"/>
    <path d="M247.01 253 L246.04 247.68"/>
    <path d="M246.04 247.68 L245.44 242.57"/>
    <path d="M245.44 242.57 L245.32 237.71"/>
    <path d="M245.32 237.71 L245.75 233.13"/>
    <path d="M245.75 233.13 L253.98 229.5"/>
    <path d="M253.98 229.5 L260.62 225.04"/>
    <path d="M260.62 225.04 L265.65 219.86"/>
    <path d="M265.65 219.86 L269.08 214.06"/>
    <path d="M269.08 214.06 L270.9 207.76"/>
    <path d="M270.9 207.76 L271.12 201.07"/>
    <path d="M271.12 201.07 L269.73 194.09"/>
    <path d="M269.73 194.09 L266.74 186.94"/>
    <path d="M266.74 186.94 L262.14 179.73"/>
    <path d="M262.14 179.73 L255.93 172.56"/>
    <path d="M255.93 172.56 L262.8 166.94"/>
    <path d="M262.8 166.94 L267.31 160.24"/>
    <path d="M267.31 160.24 L269.89 153.02"/>
    <path d="M269.89 153.02 L270.98 145.81"/>
    <path d="M270.98 145.81 L271.01 139.15"/>
    <path d="M271.01 139.15 L270.42 133.59"/>
    <path d="M270.42 133.59 L269.65 129.66"/>
    <path d="M269.65 129.66 L269.14 127.92"/>
  </g>
  <g class="move_to" stroke="red" stroke-width="1" fill="none" marker-start="url(#arrow-start)"
     marker-end="url(#arrow-end)">
    <path d="M269.14 127.92 L251.28 204.02"/>
  </g>
  <g class="stroke" stroke="black" stroke-width="3" fill="none" marker-start="none" marker-end="none">
    <path d="M251.28 204.02 L242.27 199.99"/>
    <path d="M242.27 199.99 L233.6 198.29"/>
    <path d="M233.6 198.29 L225.84 198.68"/>
    <path d="M225.84 198.68 L219.57 200.96"/>
    <path d="M219.57 200.96 L215.38 204.89"/>
    <path d="M215.38 204.89 L213.84 210.26"/>
    <path d="M213.84 210.26 L215.39 219.26"/>
    <path d="M215.39 219.26 L219.55 225.44"/>
    <path d="M219.55 225.44 L225.5 229.34"/>
    <path d="M225.5 229.34 L232.42 231.52"/>
    <path d="M232.42 231.52 L239.49 232.52"/>
    <path d="M239.49 232.52 L245.89 232.89"/>
  </g>
  <g class="move_to" stroke="red" stroke-width="1" fill="none" marker-start="url(#arrow-start)"
     marker-end="url(#arrow-end)">
    <path d="M245.89 232.89 L167.24 174.41"/>
  </g>
  <g class="stroke" stroke="black" stroke-width="3" fill="none" marker-start="none" marker-end="none">
    <path d="M167.24 174.41 L169.79 175.29"/>
    <path d="M169.79 175.29 L175.58 177.95"/>
    <path d="M175.58 177.95 L181.84 182.38"/>
    <path d="M181.84 182.38 L185.78 188.58"/>
    <path d="M185.78 188.58 L184.61 196.55"/>
    <path d="M184.61 196.55 L179.64 201.29"/>
    <path d="M179.64 201.29 L172.7 203.26"/>
    <path d="M172.7 203.26 L165.55 203.45"/>
    <path d="M165.55 203.45 L159.96 202.84"/>
    <path d="M159.96 202.84 L157.7 202.42"/>
  </g>
  <g class="move_to" stroke="red" stroke-width="1" fill="none" marker-start="url(#arrow-start)"
     marker-end="url(#arrow-end)">
    <path d="M157.7 202.42 L264.49 109.57"/>
  </g>
  <g class="stroke" stroke="black" stroke-width="3" fill="none" marker-start="none" marker-end="none">
    <path d="M264.49 109.57 L272.55 104.45"/>
    <path d="M272.55 104.45 L280.66 99.12"/>
    <path d="M280.66 99.12 L288.7 94.13"/>
    <path d="M288.7 94.13 L296.56 90"/>
    <path d="M296.56 90 L304.15 87.25"/>
    <path d="M304.15 87.25 L311.36 86.42"/>
    <path d="M311.36 86.42 L318.07 88.04"/>
  </g>
  <g class="move_to" stroke="red" stroke-width="1" fill="none" marker-start="url(#arrow-start)"
     marker-end="url(#arrow-end)">
    <path d="M318.07 88.04 L153.6 320.3"/>
  </g>
  <g class="stroke" stroke="black" stroke-width="3" fill="none" marker-start="none" marker-end="none">
    <path d="M153.6 320.3 L161.82 324.46"/>
    <path d="M161.82 324.46 L170.03 328.62"/>
    <path d="M170.03 328.62 L178.25 332.78"/>
  </g>
  <g class="move_to" stroke="red" stroke-width="1" fill="none" marker-start="url(#arrow-start)"
     marker-end="url(#arrow-end)">
    <path d="M178.25 332.78 L153.6 320.3"/>
  </g>
  <g class="stroke" stroke="black" stroke-width="3" fill="none" marker-start="none" marker-end="none">
    <path d="M153.6 320.3 L161.82 324.46"/>
    <path d="M161.82 324.46 L170.03 328.62"/>
    <path d="M170.03 328.62 L178.25 332.78"/>
  </g>
  <g class="move_to" stroke="red" stroke-width="1" fill="none" marker-start="url(#arrow-start)"
     marker-end="url(#arrow-end)">
    <path d="M178.25 332.78 L174.45 342.17"/>
  </g>
  <g class="stroke" stroke="black" stroke-width="3" fill="none" marker-start="none" marker-end="none">
    <path d="M174.45 342.17 L177.48 333.38"/>
    <path d="M177.48 333.38 L181.95 328.1"/>
    <path d="M181.95 328.1 L187.46 325.64"/>
    <path d="M187.46 325.64 L193.62 325.31"/>
    <path d="M193.62 325.31 L200.03 326.43"/>
    <path d="M200.03 326.43 L206.3 328.29"/>
    <path d="M206.3 328.29 L212.02 330.22"/>
  </g>
  <g class="move_to" stroke="red" stroke-width="1" fill="none" marker-start="url(#arrow-start)"
     marker-end="url(#arrow-end)">
    <path d="M212.02 330.22 L174.45 342.17"/>
  </g>
  <g class="stroke" stroke="black" stroke-width="3" fill="none" marker-start="none" marker-end="none">
    <path d="M174.45 342.17 L177.48 333.38"/>
    <path d="M177.48 333.38 L181.95 328.1"/>
    <path d="M181.95 328.1 L187.46 325.64"/>
    <path d="M187.46 325.64 L193.62 325.31"/>
    <path d="M193.62 325.31 L200.03 326.43"/>
    <path d="M200.03 326.43 L206.3 328.29"/>
    <path d="M206.3 328.29 L212.02 330.22"/>
  </g>
  <g class="move_to" stroke="red" stroke-width="1" fill="none" marker-start="url(#arrow-start)"
     marker-end="url(#arrow-end)">
    <path d="M212.02 330.22 L205.28 120.09"/>
  </g>
  <g class="stroke" stroke="black" stroke-width="3" fill="none" marker-start="none" marker-end="none">
    <path d="M205.28 120.09 L200.99 124.25"/>
    <path d="M200.99 124.25 L196.71 120.09"/>
    <path d="M196.71 120.09 L200.99 115.94"/>
    <path d="M200.99 115.94 L205.28 120.09"/>
  </g>
  <g class="move_to" stroke="red" stroke-width="1" fill="none" marker-start="url(#arrow-start)"
     marker-end="url(#arrow-end)">
    <path d="M205.28 120.09 L181.54 102.97"/>
  </g>
  <g class="stroke" stroke="black" stroke-width="3" fill="none" marker-start="none" marker-end="none">
    <path d="M181.54 102.97 L184.29 102.1"/>
    <path d="M184.29 102.1 L186.83 101.98"/>
    <path d="M186.83 101.98 L189.15 102.7"/>
    <path d="M189.15 102.7 L191.23 104.31"/>
    <path d="M191.23 104.31 L193.04 106.88"/>
  </g>
  <g class="move_to" stroke="red" stroke-width="1" fill="none" marker-start="url(#arrow-start)"
     marker-end="url(#arrow-end)">
    <path d="M193.04 106.88 L228.28 117.89"/>
  </g>
  <g class="stroke" stroke="black" stroke-width="3" fill="none" marker-start="none" marker-end="none">
    <path d="M228.28 117.89 L231.93 117.45"/>
    <path d="M231.93 117.45 L235.1 117.76"/>
    <path d="M235.1 117.76 L237.64 119.06"/>
    <path d="M237.64 119.06 L239.41 121.55"/>
    <path d="M239.41 121.55 L240.27 125.47"/>
  </g>
  <g class="move_to" stroke="red" stroke-width="1" fill="none" marker-start="url(#arrow-start)"
     marker-end="url(#arrow-end)">
    <path d="M240.27 125.47 L190.59 137.96"/>
  </g>
  <g class="stroke" stroke="black" stroke-width="3" fill="none" marker-start="none" marker-end="none">
    <path d="M190.59 137.96 L199.27 139.87"/>
    <path d="M199.27 139.87 L204.68 141.52"/>
    <path d="M204.68 141.52 L207.95 142.7"/>
    <path d="M207.95 142.7 L210.25 143.21"/>
    <path d="M210.25 143.21 L212.72 142.84"/>
    <path d="M212.72 142.84 L216.52 141.39"/>
  </g>
  <g class="move_to" stroke="red" stroke-width="1" fill="none" marker-start="url(#arrow-start)"
     marker-end="url(#arrow-end)">
    <path d="M216.52 141.39 L170.78 112.01"/>
  </g>
  <g class="stroke" stroke="black" stroke-width="3" fill="none" marker-start="none" marker-end="none">
    <path d="M170.78 112.01 L163.2 106.63"/>
  </g>
  <g class="move_to" stroke="red" stroke-width="1" fill="none" marker-start="url(#arrow-start)"
     marker-end="url(#arrow-end)">
    <path d="M163.2 106.63 L170.78 112.01"/>
  </g>
  <g class="stroke" stroke="black" stroke-width="3" fill="none" marker-start="none" marker-end="none">
    <path d="M170.78 112.01 L163.2 106.63"/>
  </g>
  <g class="move_to" stroke="red" stroke-width="1" fill="none" marker-start="url(#arrow-start)"
     marker-end="url(#arrow-end)">
    <path d="M163.2 106.63 L169.31 119.61"/>
  </g>
  <g class="stroke" stroke="black" stroke-width="3" fill="none" marker-start="none" marker-end="none">
    <path d="M169.31 119.61 L163.07 119.61"/>
    <path d="M163.07 119.61 L156.83 119.61"/>
  </g>
  <g class="move_to" stroke="red" stroke-width="1" fill="none" marker-start="url(#arrow-start)"
     marker-end="url(#arrow-end)">
    <path d="M156.83 119.61 L169.31 119.61"/>
  </g>
  <g class="stroke" stroke="black" stroke-width="3" fill="none" marker-start="none" marker-end="none">
    <path d="M169.31 119.61 L163.07 119.61"/>
    <path d="M163.07 119.61 L156.83 119.61"/>
  </g>
  <g class="move_to" stroke="red" stroke-width="1" fill="none" marker-start="url(#arrow-start)"
     marker-end="url(#arrow-end)">
    <path d="M156.83 119.61 L168.09 128.66"/>
  </g>
  <g class="stroke" stroke="black" stroke-width="3" fill="none" marker-start="none" marker-end="none">
    <path d="M168.09 128.66 L157.82 131.1"/>
  </g>
  <g class="move_to" stroke="red" stroke-width="1" fill="none" marker-start="url(#arrow-start)"
     marker-end="url(#arrow-end)">
    <path d="M157.82 131.1 L168.09 128.66"/>
  </g>
  <g class="stroke" stroke="black" stroke-width="3" fill="none" marker-start="none" marker-end="none">
    <path d="M168.09 128.66 L157.82 131.1"/>
  </g>
  <g class="move_to" stroke="red" stroke-width="1" fill="none" marker-start="url(#arrow-start)"
     marker-end="url(#arrow-end)">
    <path d="M157.82 131.1 L240.27 125.47"/>
  </g>
  <g class="stroke" stroke="black" stroke-width="3" fill="none" marker-start="none" marker-end="none">
    <path d="M240.27 125.47 L236.48 125.08"/>
    <path d="M236.48 125.08 L233.19 124.01"/>
    <path d="M233.19 124.01 L230.59 122.37"/>
    <path d="M230.59 122.37 L228.89 120.28"/>
    <path d="M228.89 120.28 L228.28 117.89"/>
  </g>
  <g class="move_to" stroke="red" stroke-width="1" fill="none" marker-start="url(#arrow-start)"
     marker-end="url(#arrow-end)">
    <path d="M228.28 117.89 L193.04 106.88"/>
  </g>
  <g class="stroke" stroke="black" stroke-width="3" fill="none" marker-start="none" marker-end="none">
    <path d="M193.04 106.88 L189.85 107.28"/>
    <path d="M189.85 107.28 L187.6 107.92"/>
    <path d="M187.6 107.92 L185.78 107.97"/>
    <path d="M185.78 107.97 L183.93 106.6"/>
    <path d="M183.93 106.6 L181.54 102.97"/>
  </g>
  <g class="move_to" stroke="red" stroke-width="1" fill="none" marker-start="url(#arrow-start)"
     marker-end="url(#arrow-end)">
    <path d="M181.54 102.97 L305.71 308.79"/>
  </g>
  <g class="stroke" stroke="black" stroke-width="3" fill="none" marker-start="none" marker-end="none">
    <path d="M305.71 308.79 L311.63 309.43"/>
    <path d="M311.63 309.43 L318.36 311.26"/>
    <path d="M318.36 311.26 L325.64 314.17"/>
    <path d="M325.64 314.17 L333.2 318.01"/>
    <path d="M333.2 318.01 L340.79 322.66"/>
    <path d="M340.79 322.66 L348.14 327.99"/>
    <path d="M348.14 327.99 L354.99 333.88"/>
    <path d="M354.99 333.88 L361.08 340.2"/>
    <path d="M361.08 340.2 L366.15 346.81"/>
    <path d="M366.15 346.81 L369.94 353.6"/>
    <path d="M369.94 353.6 L372.19 360.43"/>
    <path d="M372.19 360.43 L372.63 367.18"/>
    <path d="M372.63 367.18 L371.01 373.71"/>
    <path d="M371.01 373.71 L367.06 379.91"/>
  </g>
  <g class="move_to" stroke="red" stroke-width="1" fill="none" marker-start="url(#arrow-start)"
     marker-end="url(#arrow-end)">
    <path d="M367.06 379.91 L324.33 331.52"/>
  </g>
  <g class="stroke" stroke="black" stroke-width="3" fill="none" marker-start="none" marker-end="none">
    <path d="M324.33 331.52 L322.54 325.08"/>
    <path d="M322.54 325.08 L320.77 320.51"/>
    <path d="M320.77 320.51 L318.04 316.9"/>
    <path d="M318.04 316.9 L313.35 313.3"/>
    <path d="M313.35 313.3 L305.71 308.79"/>
  </g>
  <g class="move_to" stroke="red" stroke-width="1" fill="none" marker-start="url(#arrow-start)"
     marker-end="url(#arrow-end)">
    <path d="M305.71 308.79 L305.71 308.79"/>
  </g>
  <g class="stroke" stroke="black" stroke-width="3" fill="none" marker-start="none" marker-end="none">
    <path d="M305.71 308.79 L314.85 307.39"/>
    <path d="M314.85 307.39 L321.62 306.23"/>
    <path d="M321.62 306.23 L326.88 305.09"/>
    <path d="M326.88 305.09 L331.5 303.71"/>
    <path d="M331.5 303.71 L336.33 301.86"/>
    <path d="M336.33 301.86 L342.22 299.3"/>
  </g>
  <g class="move_to" stroke="red" stroke-width="1" fill="none" marker-start="url(#arrow-start)"
     marker-end="url(#arrow-end)">
    <path d="M342.22 299.3 L77.02 386.66"/>
  </g>
  <g class="stroke" stroke="black" stroke-width="3" fill="none" marker-start="none" marker-end="none">
    <path d="M77.02 386.66 L73.96 386.04"/>
    <path d="M73.96 386.04 L71.2 385.05"/>
    <path d="M71.2 385.05 L68.77 383.7"/>
    <path d="M68.77 383.7 L66.64 381.97"/>
    <path d="M66.64 381.97 L64.83 379.87"/>
    <path d="M64.83 379.87 L63.38 377.47"/>
    <path d="M63.38 377.47 L62.36 374.86"/>
    <path d="M62.36 374.86 L61.76 372.03"/>
    <path d="M61.76 372.03 L61.58 368.98"/>
    <path d="M61.58 368.98 L61.82 365.72"/>
    <path d="M61.82 365.72 L62.45 362.48"/>
    <path d="M62.45 362.48 L63.44 359.56"/>
    <path d="M63.44 359.56 L64.77 356.99"/>
    <path d="M64.77 356.99 L66.46 354.74"/>
    <path d="M66.46 354.74 L68.49 352.83"/>
    <path d="M68.49 352.83 L70.81 351.3"/>
    <path d="M70.81 351.3 L73.35 350.22"/>
    <path d="M73.35 350.22 L76.1 349.57"/>
    <path d="M76.1 349.57 L79.07 349.35"/>
    <path d="M79.07 349.35 L82.26 349.58"/>
    <path d="M82.26 349.58 L85.38 350.2"/>
    <path d="M85.38 350.2 L88.17 351.19"/>
    <path d="M88.17 351.19 L90.65 352.55"/>
    <path d="M90.65 352.55 L92.8 354.27"/>
    <path d="M92.8 354.27 L94.64 356.35"/>
    <path d="M94.64 356.35 L96.1 358.73"/>
    <path d="M96.1 358.73 L97.13 361.33"/>
    <path d="M97.13 361.33 L97.74 364.16"/>
    <path d="M97.74 364.16 L97.92 367.21"/>
    <path d="M97.92 367.21 L97.68 370.48"/>
    <path d="M97.68 370.48 L97.04 373.77"/>
    <path d="M97.04 373.77 L96.05 376.71"/>
    <path d="M96.05 376.71 L94.71 379.3"/>
    <path d="M94.71 379.3 L93.02 381.55"/>
    <path d="M93.02 381.55 L90.98 383.46"/>
    <path d="M90.98 383.46 L88.65 384.98"/>
    <path d="M88.65 384.98 L86.09 386.06"/>
    <path d="M86.09 386.06 L83.3 386.7"/>
    <path d="M83.3 386.7 L80.28 386.9"/>
    <path d="M80.28 386.9 L77.02 386.66"/>
  </g>
  <g class="move_to" stroke="red" stroke-width="1" fill="none" marker-start="url(#arrow-start)"
     marker-end="url(#arrow-end)">
    <path d="M77.02 386.66 L77.77 381.8"/>
  </g>
  <g class="stroke" stroke="black" stroke-width="3" fill="none" marker-start="none" marker-end="none">
    <path d="M77.77 381.8 L79.6 381.9"/>
    <path d="M79.6 381.9 L81.32 381.68"/>
    <path d="M81.32 381.68 L82.92 381.14"/>
    <path d="M82.92 381.14 L84.4 380.28"/>
    <path d="M84.4 380.28 L85.76 379.1"/>
    <path d="M85.76 379.1 L86.97 377.64"/>
    <path d="M86.97 377.64 L87.98 375.94"/>
    <path d="M87.98 375.94 L88.8 374"/>
    <path d="M88.8 374 L89.43 371.82"/>
    <path d="M89.43 371.82 L89.87 369.4"/>
    <path d="M89.87 369.4 L90.08 367.02"/>
    <path d="M90.08 367.02 L90.04 364.8"/>
    <path d="M90.04 364.8 L89.76 362.75"/>
    <path d="M89.76 362.75 L89.22 360.86"/>
    <path d="M89.22 360.86 L88.44 359.14"/>
    <path d="M88.44 359.14 L87.44 357.64"/>
    <path d="M87.44 357.64 L86.25 356.42"/>
    <path d="M86.25 356.42 L84.89 355.48"/>
    <path d="M84.89 355.48 L83.34 354.81"/>
    <path d="M83.34 354.81 L81.6 354.43"/>
    <path d="M81.6 354.43 L79.81 354.34"/>
    <path d="M79.81 354.34 L78.13 354.57"/>
    <path d="M78.13 354.57 L76.56 355.11"/>
    <path d="M76.56 355.11 L75.09 355.98"/>
    <path d="M75.09 355.98 L73.73 357.16"/>
    <path d="M73.73 357.16 L72.52 358.62"/>
    <path d="M72.52 358.62 L71.51 360.3"/>
    <path d="M71.51 360.3 L70.69 362.22"/>
    <path d="M70.69 362.22 L70.06 364.37"/>
    <path d="M70.06 364.37 L69.63 366.75"/>
    <path d="M69.63 366.75 L69.42 369.14"/>
    <path d="M69.42 369.14 L69.46 371.37"/>
    <path d="M69.46 371.37 L69.74 373.43"/>
    <path d="M69.74 373.43 L70.27 375.33"/>
    <path d="M70.27 375.33 L71.04 377.07"/>
    <path d="M71.04 377.07 L72.03 378.58"/>
    <path d="M72.03 378.58 L73.19 379.81"/>
    <path d="M73.19 379.81 L74.54 380.75"/>
    <path d="M74.54 380.75 L76.06 381.42"/>
    <path d="M76.06 381.42 L77.77 381.8"/>
  </g>
  <g class="move_to" stroke="red" stroke-width="1" fill="none" marker-start="url(#arrow-start)"
     marker-end="url(#arrow-end)">
    <path d="M77.77 381.8 L101.91 389.12"/>
  </g>
  <g class="stroke" stroke="black" stroke-width="3" fill="none" marker-start="none" marker-end="none">
    <path d="M101.91 389.12 L103.09 380.38"/>
    <path d="M103.09 380.38 L104.26 371.63"/>
    <path d="M104.26 371.63 L105.44 362.89"/>
    <path d="M105.44 362.89 L112.51 363.84"/>
    <path d="M112.51 363.84 L111.15 373.97"/>
    <path d="M111.15 373.97 L120.58 375.24"/>
    <path d="M120.58 375.24 L121.95 365.12"/>
    <path d="M121.95 365.12 L129.01 366.07"/>
    <path d="M129.01 366.07 L127.83 374.81"/>
    <path d="M127.83 374.81 L126.66 383.55"/>
    <path d="M126.66 383.55 L125.48 392.29"/>
    <path d="M125.48 392.29 L118.41 391.34"/>
    <path d="M118.41 391.34 L119.2 385.5"/>
    <path d="M119.2 385.5 L119.99 379.66"/>
    <path d="M119.99 379.66 L110.55 378.39"/>
    <path d="M110.55 378.39 L109.77 384.23"/>
    <path d="M109.77 384.23 L108.98 390.07"/>
    <path d="M108.98 390.07 L101.91 389.12"/>
  </g>
  <g class="move_to" stroke="red" stroke-width="1" fill="none" marker-start="url(#arrow-start)"
     marker-end="url(#arrow-end)">
    <path d="M101.91 389.12 L142.51 400.59"/>
  </g>
  <g class="stroke" stroke="black" stroke-width="3" fill="none" marker-start="none" marker-end="none">
    <path d="M142.51 400.59 L143.93 389.99"/>
    <path d="M143.93 389.99 L146.35 390.31"/>
    <path d="M146.35 390.31 L147.5 389.09"/>
    <path d="M147.5 389.09 L148.57 387.74"/>
    <path d="M148.57 387.74 L149.55 386.26"/>
    <path d="M149.55 386.26 L150.44 384.67"/>
    <path d="M150.44 384.67 L151.24 382.94"/>
    <path d="M151.24 382.94 L151.96 381.09"/>
    <path d="M151.96 381.09 L152.59 379.1"/>
    <path d="M152.59 379.1 L153.14 377"/>
    <path d="M153.14 377 L153.6 374.76"/>
    <path d="M153.6 374.76 L153.97 372.4"/>
    <path d="M153.97 372.4 L154.36 369.48"/>
    <path d="M154.36 369.48 L164.12 370.8"/>
    <path d="M164.12 370.8 L173.87 372.11"/>
    <path d="M173.87 372.11 L172.42 382.87"/>
    <path d="M172.42 382.87 L170.97 393.63"/>
    <path d="M170.97 393.63 L175.39 394.23"/>
    <path d="M175.39 394.23 L173.96 404.83"/>
    <path d="M173.96 404.83 L167.18 403.92"/>
    <path d="M167.18 403.92 L167.97 398.02"/>
    <path d="M167.97 398.02 L159.03 396.82"/>
    <path d="M159.03 396.82 L150.08 395.61"/>
    <path d="M150.08 395.61 L149.29 401.51"/>
    <path d="M149.29 401.51 L142.51 400.59"/>
  </g>
  <g class="move_to" stroke="red" stroke-width="1" fill="none" marker-start="url(#arrow-start)"
     marker-end="url(#arrow-end)">
    <path d="M142.51 400.59 L164.19 392.72"/>
  </g>
  <g class="stroke" stroke="black" stroke-width="3" fill="none" marker-start="none" marker-end="none">
    <path d="M164.19 392.72 L165.33 384.21"/>
    <path d="M165.33 384.21 L166.48 375.69"/>
    <path d="M166.48 375.69 L160.01 374.82"/>
    <path d="M160.01 374.82 L159.97 375.1"/>
    <path d="M159.97 375.1 L159.68 376.93"/>
    <path d="M159.68 376.93 L159.32 378.71"/>
    <path d="M159.32 378.71 L158.88 380.45"/>
    <path d="M158.88 380.45 L158.37 382.14"/>
    <path d="M158.37 382.14 L157.78 383.78"/>
    <path d="M157.78 383.78 L157.12 385.38"/>
    <path d="M157.12 385.38 L156.38 386.93"/>
    <path d="M156.38 386.93 L155.57 388.43"/>
    <path d="M155.57 388.43 L154.69 389.89"/>
    <path d="M154.69 389.89 L153.73 391.31"/>
    <path d="M153.73 391.31 L164.19 392.72"/>
  </g>
  <g class="move_to" stroke="red" stroke-width="1" fill="none" marker-start="url(#arrow-start)"
     marker-end="url(#arrow-end)">
    <path d="M164.19 392.72 L191.87 401.85"/>
  </g>
  <g class="stroke" stroke="black" stroke-width="3" fill="none" marker-start="none" marker-end="none">
    <path d="M191.87 401.85 L189.54 401.38"/>
    <path d="M189.54 401.38 L187.45 400.65"/>
    <path d="M187.45 400.65 L185.6 399.64"/>
    <path d="M185.6 399.64 L183.99 398.37"/>
    <path d="M183.99 398.37 L182.62 396.82"/>
    <path d="M182.62 396.82 L181.53 395.06"/>
    <path d="M181.53 395.06 L180.76 393.13"/>
    <path d="M180.76 393.13 L180.3 391.03"/>
    <path d="M180.3 391.03 L180.17 388.77"/>
    <path d="M180.17 388.77 L180.35 386.34"/>
    <path d="M180.35 386.34 L180.82 383.92"/>
    <path d="M180.82 383.92 L181.56 381.76"/>
    <path d="M181.56 381.76 L182.56 379.85"/>
    <path d="M182.56 379.85 L183.82 378.19"/>
    <path d="M183.82 378.19 L185.34 376.79"/>
    <path d="M185.34 376.79 L187.08 375.68"/>
    <path d="M187.08 375.68 L188.99 374.89"/>
    <path d="M188.99 374.89 L191.07 374.42"/>
    <path d="M191.07 374.42 L193.32 374.27"/>
    <path d="M193.32 374.27 L195.74 374.45"/>
    <path d="M195.74 374.45 L198.13 374.92"/>
    <path d="M198.13 374.92 L200.26 375.66"/>
    <path d="M200.26 375.66 L202.15 376.66"/>
    <path d="M202.15 376.66 L203.78 377.93"/>
    <path d="M203.78 377.93 L205.17 379.47"/>
    <path d="M205.17 379.47 L206.27 381.22"/>
    <path d="M206.27 381.22 L207.04 383.14"/>
    <path d="M207.04 383.14 L207.5 385.24"/>
    <path d="M207.5 385.24 L207.64 387.5"/>
    <path d="M207.64 387.5 L207.46 389.94"/>
    <path d="M207.46 389.94 L206.98 392.39"/>
    <path d="M206.98 392.39 L206.24 394.57"/>
    <path d="M206.24 394.57 L205.24 396.5"/>
    <path d="M205.24 396.5 L203.98 398.15"/>
    <path d="M203.98 398.15 L202.45 399.55"/>
    <path d="M202.45 399.55 L200.7 400.65"/>
    <path d="M200.7 400.65 L198.77 401.44"/>
    <path d="M198.77 401.44 L196.65 401.9"/>
    <path d="M196.65 401.9 L194.35 402.03"/>
    <path d="M194.35 402.03 L191.87 401.85"/>
  </g>
  <g class="move_to" stroke="red" stroke-width="1" fill="none" marker-start="url(#arrow-start)"
     marker-end="url(#arrow-end)">
    <path d="M191.87 401.85 L192.59 397.45"/>
  </g>
  <g class="stroke" stroke="black" stroke-width="3" fill="none" marker-start="none" marker-end="none">
    <path d="M192.59 397.45 L194.83 397.37"/>
    <path d="M194.83 397.37 L196.69 396.48"/>
    <path d="M196.69 396.48 L198.16 394.77"/>
    <path d="M198.16 394.77 L199.24 392.26"/>
    <path d="M199.24 392.26 L199.94 388.93"/>
    <path d="M199.94 388.93 L200.1 387.28"/>
    <path d="M200.1 387.28 L200.1 385.76"/>
    <path d="M200.1 385.76 L199.96 384.36"/>
    <path d="M199.96 384.36 L199.68 383.09"/>
    <path d="M199.68 383.09 L199.24 381.95"/>
    <path d="M199.24 381.95 L198.67 380.96"/>
    <path d="M198.67 380.96 L197.97 380.16"/>
    <path d="M197.97 380.16 L197.15 379.54"/>
    <path d="M197.15 379.54 L196.21 379.11"/>
    <path d="M196.21 379.11 L195.14 378.87"/>
    <path d="M195.14 378.87 L194.06 378.82"/>
    <path d="M194.06 378.82 L193.04 378.99"/>
    <path d="M193.04 378.99 L192.09 379.37"/>
    <path d="M192.09 379.37 L191.21 379.96"/>
    <path d="M191.21 379.96 L190.4 380.76"/>
    <path d="M190.4 380.76 L189.68 381.75"/>
    <path d="M189.68 381.75 L189.06 382.9"/>
    <path d="M189.06 382.9 L188.55 384.22"/>
    <path d="M188.55 384.22 L188.16 385.7"/>
    <path d="M188.16 385.7 L187.87 387.35"/>
    <path d="M187.87 387.35 L187.71 389"/>
    <path d="M187.71 389 L187.7 390.52"/>
    <path d="M187.7 390.52 L187.84 391.92"/>
    <path d="M187.84 391.92 L188.13 393.2"/>
    <path d="M188.13 393.2 L188.56 394.35"/>
    <path d="M188.56 394.35 L189.12 395.35"/>
    <path d="M189.12 395.35 L189.81 396.15"/>
    <path d="M189.81 396.15 L190.62 396.77"/>
    <path d="M190.62 396.77 L191.54 397.21"/>
    <path d="M191.54 397.21 L192.59 397.45"/>
  </g>
  <g class="move_to" stroke="red" stroke-width="1" fill="none" marker-start="url(#arrow-start)"
     marker-end="url(#arrow-end)">
    <path d="M192.59 397.45 L212.19 403.98"/>
  </g>
  <g class="stroke" stroke="black" stroke-width="3" fill="none" marker-start="none" marker-end="none">
    <path d="M212.19 403.98 L213.37 395.24"/>
    <path d="M213.37 395.24 L214.54 386.49"/>
    <path d="M214.54 386.49 L215.72 377.75"/>
    <path d="M215.72 377.75 L226.09 379.15"/>
    <path d="M226.09 379.15 L228.09 379.48"/>
    <path d="M228.09 379.48 L229.86 379.9"/>
    <path d="M229.86 379.9 L231.4 380.41"/>
    <path d="M231.4 380.41 L232.73 381.01"/>
    <path d="M232.73 381.01 L233.82 381.71"/>
    <path d="M233.82 381.71 L234.68 382.49"/>
    <path d="M234.68 382.49 L235.32 383.37"/>
    <path d="M235.32 383.37 L235.73 384.34"/>
    <path d="M235.73 384.34 L235.91 385.39"/>
    <path d="M235.91 385.39 L235.86 386.54"/>
    <path d="M235.86 386.54 L235.68 387.47"/>
    <path d="M235.68 387.47 L235.39 388.32"/>
    <path d="M235.39 388.32 L234.99 389.09"/>
    <path d="M234.99 389.09 L234.49 389.78"/>
    <path d="M234.49 389.78 L233.88 390.4"/>
    <path d="M233.88 390.4 L233.17 390.94"/>
    <path d="M233.17 390.94 L232.35 391.4"/>
    <path d="M232.35 391.4 L231.43 391.78"/>
    <path d="M231.43 391.78 L230.4 392.09"/>
    <path d="M230.4 392.09 L229.27 392.32"/>
    <path d="M229.27 392.32 L230.5 392.86"/>
    <path d="M230.5 392.86 L231.59 393.46"/>
    <path d="M231.59 393.46 L232.53 394.12"/>
    <path d="M232.53 394.12 L233.33 394.83"/>
    <path d="M233.33 394.83 L233.99 395.59"/>
    <path d="M233.99 395.59 L234.5 396.41"/>
    <path d="M234.5 396.41 L234.86 397.29"/>
    <path d="M234.86 397.29 L235.08 398.21"/>
    <path d="M235.08 398.21 L235.16 399.2"/>
    <path d="M235.16 399.2 L235.09 400.23"/>
    <path d="M235.09 400.23 L234.81 401.57"/>
    <path d="M234.81 401.57 L234.35 402.72"/>
    <path d="M234.35 402.72 L233.71 403.68"/>
    <path d="M233.71 403.68 L232.89 404.45"/>
    <path d="M232.89 404.45 L231.89 405.04"/>
    <path d="M231.89 405.04 L230.68 405.45"/>
    <path d="M230.68 405.45 L229.24 405.7"/>
    <path d="M229.24 405.7 L227.56 405.79"/>
    <path d="M227.56 405.79 L225.64 405.73"/>
    <path d="M225.64 405.73 L223.48 405.5"/>
    <path d="M223.48 405.5 L217.83 404.74"/>
    <path d="M217.83 404.74 L212.19 403.98"/>
  </g>
  <g class="move_to" stroke="red" stroke-width="1" fill="none" marker-start="url(#arrow-start)"
     marker-end="url(#arrow-end)">
    <path d="M212.19 403.98 L219.38 400.59"/>
  </g>
  <g class="stroke" stroke="black" stroke-width="3" fill="none" marker-start="none" marker-end="none">
    <path d="M219.38 400.59 L221.17 400.83"/>
    <path d="M221.17 400.83 L222.67 401.01"/>
    <path d="M222.67 401.01 L223.96 401.11"/>
    <path d="M223.96 401.11 L225.04 401.13"/>
    <path d="M225.04 401.13 L225.9 401.07"/>
    <path d="M225.9 401.07 L226.56 400.94"/>
    <path d="M226.56 400.94 L227.06 400.71"/>
    <path d="M227.06 400.71 L227.47 400.35"/>
    <path d="M227.47 400.35 L227.8 399.88"/>
    <path d="M227.8 399.88 L228.03 399.3"/>
    <path d="M228.03 399.3 L228.18 398.59"/>
    <path d="M228.18 398.59 L228.22 397.79"/>
    <path d="M228.22 397.79 L228.13 397.06"/>
    <path d="M228.13 397.06 L227.9 396.4"/>
    <path d="M227.9 396.4 L227.53 395.79"/>
    <path d="M227.53 395.79 L227.03 395.26"/>
    <path d="M227.03 395.26 L226.39 394.79"/>
    <path d="M226.39 394.79 L225.6 394.39"/>
    <path d="M225.6 394.39 L224.69 394.06"/>
    <path d="M224.69 394.06 L223.63 393.79"/>
    <path d="M223.63 393.79 L222.44 393.59"/>
    <path d="M222.44 393.59 L220.36 393.31"/>
    <path d="M220.36 393.31 L219.38 400.59"/>
  </g>
  <g class="move_to" stroke="red" stroke-width="1" fill="none" marker-start="url(#arrow-start)"
     marker-end="url(#arrow-end)">
    <path d="M219.38 400.59 L220.9 389.32"/>
  </g>
  <g class="stroke" stroke="black" stroke-width="3" fill="none" marker-start="none" marker-end="none">
    <path d="M220.9 389.32 L222.98 389.6"/>
    <path d="M222.98 389.6 L224 389.7"/>
    <path d="M224 389.7 L224.92 389.72"/>
    <path d="M224.92 389.72 L225.75 389.65"/>
    <path d="M225.75 389.65 L226.48 389.49"/>
    <path d="M226.48 389.49 L227.12 389.25"/>
    <path d="M227.12 389.25 L227.66 388.92"/>
    <path d="M227.66 388.92 L228.1 388.5"/>
    <path d="M228.1 388.5 L228.44 388"/>
    <path d="M228.44 388 L228.69 387.41"/>
    <path d="M228.69 387.41 L228.83 386.74"/>
    <path d="M228.83 386.74 L228.85 386.2"/>
    <path d="M228.85 386.2 L228.76 385.7"/>
    <path d="M228.76 385.7 L228.55 385.24"/>
    <path d="M228.55 385.24 L228.23 384.82"/>
    <path d="M228.23 384.82 L227.8 384.45"/>
    <path d="M227.8 384.45 L227.26 384.12"/>
    <path d="M227.26 384.12 L226.6 383.83"/>
    <path d="M226.6 383.83 L225.83 383.58"/>
    <path d="M225.83 383.58 L224.95 383.37"/>
    <path d="M224.95 383.37 L223.96 383.21"/>
    <path d="M223.96 383.21 L221.76 382.92"/>
    <path d="M221.76 382.92 L220.9 389.32"/>
  </g>
  <g class="move_to" stroke="red" stroke-width="1" fill="none" marker-start="url(#arrow-start)"
     marker-end="url(#arrow-end)">
    <path d="M220.9 389.32 L252.19 409.97"/>
  </g>
  <g class="stroke" stroke="black" stroke-width="3" fill="none" marker-start="none" marker-end="none">
    <path d="M252.19 409.97 L249.85 409.51"/>
    <path d="M249.85 409.51 L247.76 408.77"/>
    <path d="M247.76 408.77 L245.91 407.77"/>
    <path d="M245.91 407.77 L244.3 406.49"/>
    <path d="M244.3 406.49 L242.93 404.95"/>
    <path d="M242.93 404.95 L241.84 403.18"/>
    <path d="M241.84 403.18 L241.07 401.25"/>
    <path d="M241.07 401.25 L240.62 399.15"/>
    <path d="M240.62 399.15 L240.48 396.89"/>
    <path d="M240.48 396.89 L240.66 394.46"/>
    <path d="M240.66 394.46 L241.13 392.05"/>
    <path d="M241.13 392.05 L241.87 389.88"/>
    <path d="M241.87 389.88 L242.87 387.98"/>
    <path d="M242.87 387.98 L244.13 386.32"/>
    <path d="M244.13 386.32 L245.65 384.92"/>
    <path d="M245.65 384.92 L247.39 383.81"/>
    <path d="M247.39 383.81 L249.3 383.02"/>
    <path d="M249.3 383.02 L251.38 382.55"/>
    <path d="M251.38 382.55 L253.63 382.4"/>
    <path d="M253.63 382.4 L256.05 382.58"/>
    <path d="M256.05 382.58 L258.44 383.05"/>
    <path d="M258.44 383.05 L260.57 383.79"/>
    <path d="M260.57 383.79 L262.46 384.79"/>
    <path d="M262.46 384.79 L264.09 386.06"/>
    <path d="M264.09 386.06 L265.48 387.59"/>
    <path d="M265.48 387.59 L266.58 389.34"/>
    <path d="M266.58 389.34 L267.36 391.27"/>
    <path d="M267.36 391.27 L267.81 393.36"/>
    <path d="M267.81 393.36 L267.95 395.63"/>
    <path d="M267.95 395.63 L267.77 398.07"/>
    <path d="M267.77 398.07 L267.29 400.52"/>
    <path d="M267.29 400.52 L266.55 402.7"/>
    <path d="M266.55 402.7 L265.55 404.62"/>
    <path d="M265.55 404.62 L264.29 406.28"/>
    <path d="M264.29 406.28 L262.76 407.68"/>
    <path d="M262.76 407.68 L261.01 408.78"/>
    <path d="M261.01 408.78 L259.08 409.56"/>
    <path d="M259.08 409.56 L256.96 410.02"/>
    <path d="M256.96 410.02 L254.67 410.16"/>
    <path d="M254.67 410.16 L252.19 409.97"/>
  </g>
  <g class="move_to" stroke="red" stroke-width="1" fill="none" marker-start="url(#arrow-start)"
     marker-end="url(#arrow-end)">
    <path d="M252.19 409.97 L252.9 405.57"/>
  </g>
  <g class="stroke" stroke="black" stroke-width="3" fill="none" marker-start="none" marker-end="none">
    <path d="M252.9 405.57 L255.14 405.49"/>
    <path d="M255.14 405.49 L257 404.6"/>
    <path d="M257 404.6 L258.47 402.9"/>
    <path d="M258.47 402.9 L259.55 400.38"/>
    <path d="M259.55 400.38 L260.25 397.05"/>
    <path d="M260.25 397.05 L260.41 395.4"/>
    <path d="M260.41 395.4 L260.41 393.88"/>
    <path d="M260.41 393.88 L260.27 392.49"/>
    <path d="M260.27 392.49 L259.99 391.22"/>
    <path d="M259.99 391.22 L259.55 390.08"/>
    <path d="M259.55 390.08 L258.98 389.09"/>
    <path d="M258.98 389.09 L258.28 388.29"/>
    <path d="M258.28 388.29 L257.46 387.67"/>
    <path d="M257.46 387.67 L256.52 387.24"/>
    <path d="M256.52 387.24 L255.45 387"/>
    <path d="M255.45 387 L254.37 386.95"/>
    <path d="M254.37 386.95 L253.35 387.12"/>
    <path d="M253.35 387.12 L252.4 387.5"/>
    <path d="M252.4 387.5 L251.52 388.09"/>
    <path d="M251.52 388.09 L250.71 388.89"/>
    <path d="M250.71 388.89 L249.99 389.88"/>
    <path d="M249.99 389.88 L249.37 391.03"/>
    <path d="M249.37 391.03 L248.87 392.35"/>
    <path d="M248.87 392.35 L248.47 393.83"/>
    <path d="M248.47 393.83 L248.18 395.48"/>
    <path d="M248.18 395.48 L248.02 397.13"/>
    <path d="M248.02 397.13 L248.01 398.65"/>
    <path d="M248.01 398.65 L248.15 400.05"/>
    <path d="M248.15 400.05 L248.44 401.32"/>
    <path d="M248.44 401.32 L248.87 402.47"/>
    <path d="M248.87 402.47 L249.43 403.47"/>
    <path d="M249.43 403.47 L250.12 404.28"/>
    <path d="M250.12 404.28 L250.93 404.9"/>
    <path d="M250.93 404.9 L251.85 405.33"/>
    <path d="M251.85 405.33 L252.9 405.57"/>
  </g>
  <g class="move_to" stroke="red" stroke-width="1" fill="none" marker-start="url(#arrow-start)"
     marker-end="url(#arrow-end)">
    <path d="M252.9 405.57 L268.82 411.61"/>
  </g>
  <g class="stroke" stroke="black" stroke-width="3" fill="none" marker-start="none" marker-end="none">
    <path d="M268.82 411.61 L269.46 406.88"/>
    <path d="M269.46 406.88 L270.7 406.89"/>
    <path d="M270.7 406.89 L271.8 406.56"/>
    <path d="M271.8 406.56 L272.77 405.9"/>
    <path d="M272.77 405.9 L273.6 404.9"/>
    <path d="M273.6 404.9 L274.3 403.57"/>
    <path d="M274.3 403.57 L274.97 401.76"/>
    <path d="M274.97 401.76 L275.6 399.51"/>
    <path d="M275.6 399.51 L276.2 396.8"/>
    <path d="M276.2 396.8 L276.77 393.64"/>
    <path d="M276.77 393.64 L277.3 390.04"/>
    <path d="M277.3 390.04 L277.82 386.12"/>
    <path d="M277.82 386.12 L287.79 387.47"/>
    <path d="M287.79 387.47 L297.77 388.81"/>
    <path d="M297.77 388.81 L296.59 397.55"/>
    <path d="M296.59 397.55 L295.41 406.29"/>
    <path d="M295.41 406.29 L294.23 415.03"/>
    <path d="M294.23 415.03 L287.16 414.08"/>
    <path d="M287.16 414.08 L288.61 403.32"/>
    <path d="M288.61 403.32 L290.06 392.56"/>
    <path d="M290.06 392.56 L283.81 391.72"/>
    <path d="M283.81 391.72 L283.75 392.15"/>
    <path d="M283.75 392.15 L283.03 396.74"/>
    <path d="M283.03 396.74 L282.19 400.67"/>
    <path d="M282.19 400.67 L281.24 403.94"/>
    <path d="M281.24 403.94 L280.17 406.55"/>
    <path d="M280.17 406.55 L278.99 408.5"/>
    <path d="M278.99 408.5 L277.59 409.92"/>
    <path d="M277.59 409.92 L275.87 410.95"/>
    <path d="M275.87 410.95 L273.84 411.57"/>
    <path d="M273.84 411.57 L271.49 411.79"/>
    <path d="M271.49 411.79 L268.82 411.61"/>
  </g>
  <g class="move_to" stroke="red" stroke-width="1" fill="none" marker-start="url(#arrow-start)"
     marker-end="url(#arrow-end)">
    <path d="M268.82 411.61 L324.54 418.22"/>
  </g>
  <g class="stroke" stroke="black" stroke-width="3" fill="none" marker-start="none" marker-end="none">
    <path d="M324.54 418.22 L322.47 418.48"/>
    <path d="M322.47 418.48 L320.47 418.63"/>
    <path d="M320.47 418.63 L318.52 418.67"/>
    <path d="M318.52 418.67 L316.62 418.6"/>
    <path d="M316.62 418.6 L314.79 418.41"/>
    <path d="M314.79 418.41 L312.29 417.92"/>
    <path d="M312.29 417.92 L310.06 417.17"/>
    <path d="M310.06 417.17 L308.09 416.14"/>
    <path d="M308.09 416.14 L306.38 414.85"/>
    <path d="M306.38 414.85 L304.93 413.29"/>
    <path d="M304.93 413.29 L303.78 411.51"/>
    <path d="M303.78 411.51 L302.96 409.54"/>
    <path d="M302.96 409.54 L302.47 407.41"/>
    <path d="M302.47 407.41 L302.32 405.09"/>
    <path d="M302.32 405.09 L302.5 402.6"/>
    <path d="M302.5 402.6 L302.95 400.28"/>
    <path d="M302.95 400.28 L303.66 398.18"/>
    <path d="M303.66 398.18 L304.62 396.31"/>
    <path d="M304.62 396.31 L305.83 394.67"/>
    <path d="M305.83 394.67 L307.3 393.26"/>
    <path d="M307.3 393.26 L308.96 392.12"/>
    <path d="M308.96 392.12 L310.75 391.31"/>
    <path d="M310.75 391.31 L312.69 390.81"/>
    <path d="M312.69 390.81 L314.77 390.64"/>
    <path d="M314.77 390.64 L316.98 390.79"/>
    <path d="M316.98 390.79 L319.14 391.23"/>
    <path d="M319.14 391.23 L321.01 391.92"/>
    <path d="M321.01 391.92 L322.59 392.87"/>
    <path d="M322.59 392.87 L323.89 394.08"/>
    <path d="M323.89 394.08 L324.9 395.55"/>
    <path d="M324.9 395.55 L325.64 397.3"/>
    <path d="M325.64 397.3 L326.11 399.36"/>
    <path d="M326.11 399.36 L326.33 401.73"/>
    <path d="M326.33 401.73 L326.3 404.41"/>
    <path d="M326.3 404.41 L326 407.4"/>
    <path d="M326 407.4 L317.87 406.3"/>
    <path d="M317.87 406.3 L309.74 405.2"/>
    <path d="M309.74 405.2 L309.93 407.98"/>
    <path d="M309.93 407.98 L310.75 410.23"/>
    <path d="M310.75 410.23 L312.2 411.95"/>
    <path d="M312.2 411.95 L314.27 413.14"/>
    <path d="M314.27 413.14 L316.97 413.81"/>
    <path d="M316.97 413.81 L318.44 413.94"/>
    <path d="M318.44 413.94 L319.99 413.95"/>
    <path d="M319.99 413.95 L321.64 413.84"/>
    <path d="M321.64 413.84 L323.38 413.61"/>
    <path d="M323.38 413.61 L325.21 413.25"/>
    <path d="M325.21 413.25 L324.54 418.22"/>
  </g>
  <g class="move_to" stroke="red" stroke-width="1" fill="none" marker-start="url(#arrow-start)"
     marker-end="url(#arrow-end)">
    <path d="M324.54 418.22 L310.18 401.2"/>
  </g>
  <g class="stroke" stroke="black" stroke-width="3" fill="none" marker-start="none" marker-end="none">
    <path d="M310.18 401.2 L319.59 402.47"/>
    <path d="M319.59 402.47 L319.74 400.03"/>
    <path d="M319.74 400.03 L319.48 398.08"/>
    <path d="M319.48 398.08 L318.79 396.62"/>
    <path d="M318.79 396.62 L317.69 395.66"/>
    <path d="M317.69 395.66 L316.17 395.18"/>
    <path d="M316.17 395.18 L314.52 395.23"/>
    <path d="M314.52 395.23 L313.1 395.86"/>
    <path d="M313.1 395.86 L311.9 397.06"/>
    <path d="M311.9 397.06 L310.93 398.84"/>
    <path d="M310.93 398.84 L310.18 401.2"/>
  </g>
  <g class="move_to" stroke="red" stroke-width="1" fill="none" marker-start="url(#arrow-start)"
     marker-end="url(#arrow-end)">
    <path d="M310.18 401.2 L331.73 420.09"/>
  </g>
  <g class="stroke" stroke="black" stroke-width="3" fill="none" marker-start="none" marker-end="none">
    <path d="M331.73 420.09 L332.91 411.35"/>
    <path d="M332.91 411.35 L334.09 402.6"/>
    <path d="M334.09 402.6 L335.27 393.86"/>
    <path d="M335.27 393.86 L342.34 394.81"/>
    <path d="M342.34 394.81 L340.97 404.94"/>
    <path d="M340.97 404.94 L350.41 406.21"/>
    <path d="M350.41 406.21 L351.77 396.08"/>
    <path d="M351.77 396.08 L358.84 397.04"/>
    <path d="M358.84 397.04 L357.66 405.78"/>
    <path d="M357.66 405.78 L356.49 414.52"/>
    <path d="M356.49 414.52 L355.31 423.26"/>
    <path d="M355.31 423.26 L348.24 422.31"/>
    <path d="M348.24 422.31 L349.03 416.47"/>
    <path d="M349.03 416.47 L349.81 410.63"/>
    <path d="M349.81 410.63 L340.38 409.36"/>
    <path d="M340.38 409.36 L339.59 415.2"/>
    <path d="M339.59 415.2 L338.8 421.04"/>
    <path d="M338.8 421.04 L331.73 420.09"/>
  </g>
  <g class="move_to" stroke="red" stroke-width="1" fill="none" marker-start="url(#arrow-start)"
     marker-end="url(#arrow-end)">
    <path d="M331.73 420.09 L50 50"/>
  </g>
  <text x="15" y="15" font-family="'PT Serif Caption', 'Helvetica Neue', Arial, serif;" font-size="12px" fill="red">Холостой ход: 3711mm, Рисование: 3332mm</text>
</svg>
