<?xml version="1.0" encoding="UTF-8"?>
<!DOCTYPE svg PUBLIC "-//W3C//DTD SVG 1.1//EN" "http://www.w3.org/Graphics/SVG/1.1/DTD/svg11.dtd">
<svg version="1.1" xmlns="http://www.w3.org/2000/svg" xmlns:xlink="http://www.w3.org/1999/xlink" x="0" y="0" width="800" height="800" viewBox="0, 0, 800, 800">
  <g id="Layer_9">
    <path d="M114.28,468.568 L114.28,571.432 C114.28,697.136 217.144,800 342.849,800 L457.14,800 C582.845,800 685.708,697.136 685.708,571.432 L685.708,468.568 L799.992,171.428 C799.992,114.288 620.902,0 400,0 C179.087,0 -0,114.288 -0,171.428 L114.28,468.568 z M571.424,92.861 C583.262,92.861 592.851,102.457 592.851,114.288 C592.851,126.133 583.262,135.715 571.424,135.715 C559.575,135.715 549.994,126.133 549.994,114.288 C549.994,102.454 559.575,92.861 571.424,92.861 M599.994,400.004 C599.994,415.713 592.053,438.685 582.371,451.042 C582.371,451.042 555.215,485.714 499.997,485.714 C471.976,485.714 452.434,472.834 452.434,472.834 C439.31,464.205 428.57,444.283 428.57,428.574 L428.57,385.717 C428.57,377.847 441.424,371.43 457.14,371.43 L571.424,371.43 C587.133,371.434 599.994,384.287 599.994,400.004 M485.71,114.288 L514.28,114.288 L514.28,171.428 L485.71,199.998 L485.71,114.288 z M414.283,114.288 L457.14,114.288 L457.14,228.572 L414.283,228.572 L414.283,114.288 z M442.857,257.138 L442.857,299.995 C442.857,323.675 423.654,342.856 400,342.856 C376.331,342.856 357.135,323.675 357.135,299.995 L357.135,257.138 L442.857,257.138 z M342.849,114.288 L385.717,114.288 L385.717,228.572 L342.849,228.572 L342.849,114.288 z M285.705,114.288 L314.275,114.288 L314.275,199.998 L285.705,171.428 L285.705,114.288 z M228.564,92.861 C240.41,92.861 249.991,102.457 249.991,114.288 C249.991,126.133 240.41,135.715 228.564,135.715 C216.73,135.715 207.138,126.133 207.138,114.288 C207.134,102.454 216.73,92.861 228.564,92.861 M228.564,371.434 L342.849,371.434 C358.569,371.434 371.419,377.851 371.419,385.721 L371.419,428.578 C371.419,444.286 360.686,464.208 347.554,472.838 C347.554,472.838 328.005,485.718 299.992,485.718 C244.743,485.718 217.625,451.046 217.625,451.046 C207.913,438.685 199.991,415.713 199.991,400.008 C199.991,384.287 212.863,371.434 228.564,371.434 M51.964,158.108 C53.657,157.438 55.406,157.141 57.136,157.141 C62.862,157.141 68.26,160.602 70.434,166.237 L174.34,433.122 C201.815,501.769 235.779,528.575 295.447,528.575 C335.028,528.575 368.251,504.022 368.552,503.751 C386.187,490.537 413.779,490.589 431.421,503.751 C431.711,504.022 465.247,528.575 504.541,528.575 C564.194,528.575 598.159,501.773 625.679,433.013 L729.528,166.241 C732.383,158.894 740.708,155.245 748.025,158.112 C755.352,160.959 759.009,169.235 756.135,176.619 L652.248,443.489 C620.387,523.184 576.217,557.149 504.538,557.149 C455.515,557.149 415.931,527.871 414.276,526.653 C406.786,521.018 393.161,521.018 385.706,526.653 C384.043,527.871 344.436,557.149 295.444,557.149 C223.753,557.149 179.598,523.184 147.752,443.598 L43.809,176.615 C40.976,169.231 44.599,160.955 51.964,158.108" fill="#000000"/>
  </g>
</svg>
