<?xml version="1.0" encoding="UTF-8"?>
<!DOCTYPE svg PUBLIC "-//W3C//DTD SVG 1.1//EN" "http://www.w3.org/Graphics/SVG/1.1/DTD/svg11.dtd">
<svg version="1.1" xmlns="http://www.w3.org/2000/svg" xmlns:xlink="http://www.w3.org/1999/xlink" x="0" y="0" width="252.77" height="491.87" viewBox="0, 0, 252.77, 491.87">
  <g id="Camada_1">
    <path d="M234.325,186.491 C236.189,174.95 234.31,162.974 239.446,152.309 C242.528,145.907 243.689,139.784 246.698,133.257 C252.36,120.973 246.841,107.261 245.696,94.243 C244.873,84.893 243.242,74.806 246.468,65.776 C250.239,63.581 256.054,52.103 250.45,45.664 C243.406,38.56 251.208,31.741 250.384,23.52 C251.471,11.333 244.819,11.558 242.84,17.436 C238.156,31.349 231.979,45.212 231.825,60.061 C233.666,72.488 233.934,84.888 231.289,97.382 C228.446,110.815 226.516,124.712 224.27,138.149 C221.201,141.35 216.772,154.425 212.718,147.918 C210.887,142.417 214.495,134.496 207.096,133.327 C201.856,132.499 200.822,144.949 195.038,148.539 C187.74,157.082 188.306,169.751 184.912,180.171 C184.064,184.512 179.427,196.423 174.786,189.399 C173.762,175.393 172.62,161.045 170.397,147.025 C175.902,131.167 178.647,114.623 179.315,97.923 C179.629,90.086 182.2,83.066 184.155,75.568 C186.433,66.835 189.491,58.418 189.435,49.129 C189.388,41.288 191.503,34.258 196.067,27.902 C196.425,21.948 204.527,17.418 203.255,12.427 C194.734,18.604 198.404,15.304 203.011,8.085 C206.869,-2.676 190.284,17.16 198.135,5.019 C201.657,-5.213 195.183,2.453 193.173,8.131 C190.508,15.659 185.698,22.88 183.701,30.503 C178.914,48.778 170.627,69.62 166.237,83.969 C161.847,98.317 165.364,108.995 159.441,116.753 C153.518,124.51 149.972,131.739 145.576,139.526 C140.633,139.653 129.412,133.91 134.906,128.768 C141.28,122.802 142.705,114.158 140.456,105.683 C137.926,96.151 129.227,88.298 119.956,86.387 C111.372,84.617 103.606,88.697 98.444,95.922 C92.907,103.672 94.581,113.668 96.821,121.119 C98.302,126.042 99.925,137.639 106.704,134.003 C114.076,130.049 111.88,139.511 113.433,144.347 C107.635,148.591 103.875,154.489 98.797,159.256 C94.857,162.955 93.011,163.567 86.533,169.862 C80.056,176.157 74.37,192.314 65.588,201.785 C56.523,211.561 45.426,221.443 40.654,234.342 C37.762,242.159 31.301,247.971 28.12,255.56 C22.538,263.754 14.692,269.44 7.361,275.776 C2.858,279.669 -3.195,285.802 2.004,286.847 C-3.773,301.21 14.423,275.036 20.305,275.776 C24.161,276.261 18.214,293.258 23.683,286.475 C24.154,278.297 31.945,272.739 31.289,264.347 C45.205,248.392 60.186,233.285 73.075,216.49 C80.64,206.633 90.498,198.464 97.539,188.097 C105.217,185.842 110.369,197.763 111.468,203.097 C112.851,209.807 121.51,212.319 125.664,217.442 C130.054,222.855 137.799,225.801 141.697,230.742 C147.612,238.24 145.377,249.266 141.29,258.454 C136.061,270.208 130.648,282.413 130.282,295.807 C130.046,304.417 127.068,313.155 128.433,321.669 C135.497,320.204 135.896,311.452 143.054,309.637 C149.006,308.128 152.6,303.503 156.687,299.098 C164.754,290.403 163.076,299.647 162.793,306.253 C162.268,318.491 164.894,330.319 169.847,341.49 C172.25,354.293 172.298,367.445 169.108,380.05 C167.371,397.636 170.222,415.226 170.736,432.802 C172.851,441.362 169.302,449.456 170.933,458.098 C170.193,464.826 164.861,470.657 166.418,477.121 C166.519,483.032 167.131,493.49 175.426,491.653 C181.665,492.272 183.972,482.647 183.853,477.389 C184.979,471.311 181.752,463.088 186.647,458.634 C193.361,457.184 193.316,443.978 185.6,443.266 C182.127,435.536 186.425,426.208 187.277,417.973 C189.954,405.295 195.153,392.925 193.124,379.675 C192.545,371.234 190.266,362.755 193.647,354.662 C193.143,330.334 199.031,306.564 199.918,282.327 C201.147,274.905 200.182,266.47 202.817,259.657 C210.458,252.876 219.053,246.367 221.149,235.699 C225.201,222.832 229.211,209.91 233.247,197.006 C234.656,193.603 234.319,190.08 234.326,186.491 L234.326,186.491 z" fill="#000000" id="path2830"/>
  </g>
</svg>
