<?xml version="1.0"?>
<!DOCTYPE svg PUBLIC "-//W3C//DTD SVG 1.1//EN" "http://www.w3.org/Graphics/SVG/1.1/DTD/svg11.dtd">
<svg xmlns="http://www.w3.org/2000/svg" xmlns:xlink="http://www.w3.org/1999/xlink" version="1.1" x="0" y="0" width="180.85" height="71.09" viewBox="0, 0, 180.85, 71.09">
  <marker id="arrow-start" markerWidth="8" markerHeight="8" refX="-2%" refY="4" markerUnits="userSpaceOnUse" orient="auto">
    <polyline points="0,0 8,4 0,8 2,4 0,0" stroke-width="1" stroke="darkred" fill="red"/>
  </marker>
  <marker id="arrow-end" markerWidth="8" markerHeight="8" refX="2%" refY="4" markerUnits="userSpaceOnUse" orient="auto">
    <polyline points="0,0 8,4 0,8 2,4 0,0" stroke-width="1" stroke="darkred" fill="red"/>
  </marker>
  <style>g.stroke path:hover {stroke-width: 2;}</style>
  <style>g.move_to path:hover{stroke-width: 2;}</style>
  <g class="stroke" stroke="black" stroke-width="1" fill="none" marker-start="none" marker-end="none">
    <path d=" M 169.1 60.43 L 169.05 60.56 L 168.98 60.7 L 168.9 60.83 L 168.81 60.96 L 168.71 61.1 L 168.6 61.23 L 168.49 61.36 L 168.38 61.49 L 168.28 61.62 L 168.18 61.74 L 168.1 61.87 L 168.02 61.99 L 167.97 62.12 L 167.93 62.24 L 167.92 62.36 L 167.93 62.48 L 167.97 62.59 L 168.04 62.71 L 168.15 62.82 L 168.29 62.93 L 168.44 63.04 L 168.56 63.15 L 168.66 63.26 L 168.75 63.36 L 168.82 63.47 L 168.89 63.57 L 168.97 63.68 L 169.04 63.78 L 169.12 63.88 L 169.21 63.99 L 169.32 64.09 L 169.46 64.2 L 169.57 64.3 L 169.64 64.39 L 169.68 64.49 L 169.68 64.59 L 169.64 64.69 L 169.58 64.79 L 169.49 64.89 L 169.38 64.99 L 169.24 65.09 L 169.09 65.19 L 168.91 65.29 L 168.73 65.39 L 168.53 65.49 L 168.33 65.58 L 168.12 65.68 L 167.9 65.78 L 167.68 65.88 L 167.46 65.97 L 167.25 66.07 L 167.04 66.16 L 166.84 66.26 L 166.65 66.35 L 166.47 66.44 L 166.31 66.53 L 166.14 66.63 L 165.98 66.72 L 165.82 66.81 L 165.65 66.9 L 165.49 67.0 L 165.34 67.09 L 165.19 67.18 L 165.06 67.27 L 164.94 67.36 L 164.84 67.45 L 164.75 67.54 L 164.69 67.63 L 164.64 67.72 L 164.62 67.81 L 164.63 67.89 L 164.67 67.97 L 164.74 68.06 L 164.97 68.09 L 165.19 68.13 L 165.4 68.19 L 165.59 68.25 L 165.75 68.32 L 165.88 68.4 L 165.96 68.48 L 165.99 68.57 L 165.97 68.65 L 165.89 68.74 L 165.73 68.82 L 165.5 68.9 L 165.18 68.98 L 164.78 69.05 L 164.29 69.12 L 163.93 69.19 L 163.68 69.27 L 163.52 69.34 L 163.43 69.41 L 163.41 69.48 L 163.43 69.55 L 163.48 69.62 L 163.55 69.7 L 163.6 69.77 L 163.64 69.85 L 163.65 69.92 L 163.6 70.0 L 163.48 70.08 L 163.42 70.15 L 163.33 70.22 L 163.23 70.28 L 163.11 70.34 L 162.97 70.38 L 162.83 70.42 L 162.67 70.45 L 162.51 70.48 L 162.34 70.5 L 162.17 70.51 L 162.01 70.51 L 161.84 70.52 L 161.68 70.51 L 161.53 70.5 L 161.39 70.49 L 161.26 70.47 L 161.14 70.44 L 161.04 70.42 L 160.97 70.38 L 160.91 70.35 L 160.83 70.27 L 160.73 70.19 L 160.64 70.11 L 160.54 70.04 L 160.45 69.96 L 160.35 69.88 L 160.25 69.8 L 160.16 69.72 L 160.07 69.64 L 159.98 69.56 L 159.89 69.48 L 159.81 69.39 L 159.74 69.31 L 159.68 69.23 L 159.63 69.14 L 159.59 69.06 L 159.56 68.97 L 159.54 68.88 L 159.53 68.8 L 159.54 68.71 L 159.57 68.62 L 159.61 68.53 L 159.68 68.44 L 159.76 68.34 L 159.94 68.25 L 160.11 68.16 L 160.28 68.06 L 160.44 67.97 L 160.6 67.87 L 160.74 67.77 L 160.88 67.68 L 161.0 67.58 L 161.12 67.48 L 161.23 67.38 L 161.33 67.28 L 161.42 67.18 L 161.49 67.08 L 161.56 66.98 L 161.61 66.88 L 161.65 66.78 L 161.67 66.67 L 161.69 66.57 L 161.68 66.46 L 161.67 66.36 L 161.65 66.26 L 161.64 66.17 L 161.62 66.07 L 161.62 65.97 L 161.61 65.87 L 161.61 65.77 L 161.6 65.67 L 161.6 65.57 L 161.61 65.47 L 161.61 65.37 L 161.62 65.27 L 161.62 65.16 L 161.63 65.06 L 161.64 64.95 L 161.65 64.85 L 161.66 64.74 L 161.67 64.64 L 161.68 64.53 L 161.69 64.42 L 161.7 64.32 L 161.71 64.21 L 161.72 64.1 L 161.73 63.99 L 161.73 63.88 L 161.51 63.82 L 161.29 63.73 L 161.06 63.63 L 160.82 63.52 L 160.57 63.42 L 160.3 63.32 L 160.02 63.23 L 159.7 63.16 L 159.36 63.12 L 158.98 63.11 L 158.57 63.15 L 158.12 63.23 L 157.88 63.35 L 157.71 63.47 L 157.58 63.59 L 157.48 63.71 L 157.35 63.83 L 157.17 63.93 L 156.9 64.02 L 156.52 64.1 L 155.99 64.16 L 155.28 64.19 L 154.84 64.19 L 154.48 64.15 L 154.18 64.09 L 153.92 64.01 L 153.7 63.92 L 153.48 63.81 L 153.27 63.69 L 153.04 63.57 L 152.78 63.46 L 152.47 63.35 L 152.1 63.26 L 151.65 63.19 L 151.33 63.1 L 151.05 63.01 L 150.8 62.91 L 150.6 62.81 L 150.42 62.7 L 150.27 62.6 L 150.15 62.48 L 150.05 62.37 L 149.97 62.25 L 149.9 62.14 L 149.85 62.02 L 149.8 61.9 L 149.75 61.77 L 149.71 61.65 L 149.66 61.53 L 149.61 61.4 L 149.54 61.28 L 149.47 61.16 L 149.37 61.03 L 149.25 60.91 L 149.2 60.82 L 149.09 60.71 L 148.94 60.59 L 148.74 60.46 L 148.5 60.34 L 148.21 60.22 L 147.88 60.13 L 147.51 60.06 L 147.1 60.03 L 146.64 60.03 L 146.16 60.09 L 145.65 60.2 L 145.53 60.33 L 145.41 60.47 L 145.29 60.61 L 145.17 60.75 L 145.05 60.88 L 144.93 61.02 L 144.82 61.15 L 144.69 61.28 L 144.57 61.41 L 144.45 61.55 L 144.32 61.68 L 144.2 61.81 L 144.07 61.94 L 143.94 62.06 L 143.81 62.19 L 143.68 62.32 L 143.54 62.44 L 143.41 62.57 L 143.27 62.69 L 143.13 62.81 L 142.98 62.93 L 142.84 63.05 L 142.69 63.17 L 142.54 63.29 L 142.69 63.4 L 142.84 63.51 L 142.98 63.62 L 143.11 63.73 L 143.23 63.84 L 143.35 63.95 L 143.46 64.06 L 143.56 64.16 L 143.66 64.27 L 143.75 64.38 L 143.83 64.49 L 143.9 64.59 L 143.96 64.7 L 144.02 64.8 L 144.08 64.91 L 144.12 65.01 L 144.16 65.12 L 144.2 65.22 L 144.23 65.32 L 144.25 65.42 L 144.26 65.53 L 144.28 65.63 L 144.28 65.73 L 144.28 65.83 L 144.28 65.93 L 144.27 66.03 L 144.25 66.13 L 144.23 66.23 L 144.2 66.33 L 144.19 66.44 L 144.2 66.54 L 144.24 66.65 L 144.29 66.75 L 144.37 66.86 L 144.47 66.96 L 144.57 67.06 L 144.68 67.15 L 144.79 67.25 L 144.91 67.35 L 145.02 67.45 L 145.13 67.55 L 145.23 67.65 L 145.34 67.74 L 145.45 67.84 L 145.56 67.93 L 145.67 68.03 L 145.77 68.12 L 145.86 68.22 L 145.93 68.31 L 146.0 68.41 L 146.04 68.5 L 146.07 68.6 L 146.07 68.69 L 146.05 68.79 L 146.0 68.88 L 145.95 68.98 L 145.93 69.07 L 145.94 69.16 L 145.98 69.25 L 146.05 69.33 L 146.15 69.41 L 146.28 69.5 L 146.43 69.58 L 146.62 69.65 L 146.84 69.73 L 147.09 69.8 L 147.37 69.88 L 147.41 69.96 L 147.56 70.03 L 147.79 70.1 L 148.07 70.17 L 148.37 70.24 L 148.65 70.31 L 148.88 70.37 L 149.04 70.44 L 149.09 70.5 L 149.01 70.56 L 148.63 70.52 L 148.32 70.49 L 148.07 70.46 L 147.88 70.44 L 147.74 70.43 L 147.65 70.42 L 147.6 70.42 L 147.6 70.43 L 147.63 70.45 L 147.7 70.47 L 147.8 70.49 L 147.92 70.53 L 148.07 70.56 L 148.23 70.6 L 148.41 70.65 L 148.6 70.7 L 148.79 70.75 L 148.87 70.81 L 148.88 70.85 L 148.84 70.88 L 148.75 70.89 L 148.61 70.89 L 148.45 70.88 L 148.25 70.87 L 148.04 70.85 L 147.83 70.82 L 147.61 70.79 L 147.4 70.77 L 147.2 70.74 L 147.04 70.72 L 146.9 70.71 L 146.81 70.71 L 146.77 70.71 L 146.78 70.73 L 146.87 70.76 L 147.03 70.81 L 147.27 70.88 L 147.37 70.95 L 147.43 71.0 L 147.45 71.04 L 147.43 71.07 L 147.38 71.09 L 147.3 71.09 L 147.2 71.09 L 147.08 71.08 L 146.95 71.06 L 146.81 71.03 L 146.66 71.0 L 146.52 70.96 L 146.37 70.92 L 146.23 70.88 L 146.11 70.84 L 146.0 70.79 L 145.91 70.75 L 145.78 70.68 L 145.64 70.61 L 145.47 70.54 L 145.3 70.47 L 145.12 70.4 L 144.94 70.33 L 144.76 70.26 L 144.57 70.19 L 144.4 70.12 L 144.23 70.05 L 144.07 69.98 L 143.93 69.91 L 143.81 69.83 L 143.71 69.76 L 143.62 69.69 L 143.54 69.61 L 143.44 69.54 L 143.34 69.47 L 143.24 69.39 L 143.13 69.31 L 143.02 69.24 L 142.9 69.16 L 142.78 69.08 L 142.66 69.01 L 142.53 68.93 L 142.41 68.85 L 142.28 68.77 L 142.15 68.69 L 142.01 68.61 L 141.88 68.53 L 141.75 68.45 L 141.61 68.37 L 141.47 68.29 L 141.34 68.21 L 141.2 68.14 L 141.06 68.06 L 140.93 67.98 L 140.8 67.9 L 140.66 67.82 L 140.53 67.75 L 140.4 67.67 L 140.28 67.6 L 140.15 67.52 L 140.04 67.45 L 139.92 67.38 L 139.8 67.31 L 139.7 67.24 L 139.59 67.17 L 139.49 67.1 L 139.36 67.0 L 139.25 66.91 L 139.17 66.82 L 139.1 66.72 L 139.05 66.63 L 139.02 66.54 L 138.99 66.46 L 138.97 66.37 L 138.96 66.29 L 138.96 66.21 L 138.95 66.13 L 138.95 66.05 L 138.94 65.97 L 138.93 65.89 L 138.91 65.82 L 138.87 65.75 L 138.82 65.67 L 138.76 65.61 L 138.68 65.54 L 138.57 65.47 L 138.44 65.41 L 138.28 65.34 L 138.09 65.28 L 137.87 65.22 L 137.55 65.14 L 137.23 65.06 L 136.93 64.98 L 136.64 64.89 L 136.36 64.81 L 136.09 64.73 L 135.83 64.65 L 135.57 64.56 L 135.32 64.48 L 135.07 64.4 L 134.82 64.31 L 134.58 64.23 L 134.34 64.14 L 134.09 64.06 L 133.84 63.97 L 133.59 63.88 L 133.33 63.79 L 132.84 63.8 L 132.28 63.82 L 131.68 63.85 L 131.07 63.89 L 130.49 63.95 L 129.96 64.01 L 129.5 64.08 L 129.15 64.16 L 128.94 64.24 L 128.9 64.32 L 129.04 64.4 L 129.41 64.48 L 129.86 64.57 L 130.25 64.65 L 130.59 64.74 L 130.88 64.84 L 131.12 64.94 L 131.3 65.04 L 131.44 65.14 L 131.53 65.24 L 131.58 65.35 L 131.58 65.45 L 131.54 65.56 L 131.46 65.67 L 131.34 65.77 L 131.18 65.88 L 130.99 65.98 L 130.77 66.07 L 130.5 66.16 L 130.2 66.25 L 129.87 66.33 L 129.51 66.41 L 129.12 66.49 L 128.71 66.56 L 128.28 66.63 L 127.83 66.69 L 127.35 66.75 L 126.86 66.8 L 126.36 66.84 L 125.85 66.88 L 125.32 66.92 L 124.79 66.95 L 124.26 66.97 L 123.65 66.98 L 123.06 66.99 L 122.48 66.99 L 121.91 66.98 L 121.34 66.96 L 120.8 66.93 L 120.26 66.89 L 119.75 66.85 L 119.24 66.8 L 118.75 66.74 L 118.29 66.67 L 117.84 66.6 L 117.41 66.52 L 117.0 66.44 L 116.68 66.36 L 116.4 66.28 L 116.16 66.2 L 115.96 66.11 L 115.8 66.02 L 115.68 65.93 L 115.59 65.84 L 115.54 65.75 L 115.51 65.66 L 115.51 65.57 L 115.53 65.48 L 115.57 65.39 L 115.63 65.3 L 115.71 65.21 L 115.8 65.12 L 115.91 65.04 L 116.02 64.96 L 116.13 64.87 L 116.24 64.78 L 116.37 64.67 L 116.51 64.56 L 116.68 64.46 L 116.9 64.36 L 117.15 64.26 L 117.45 64.19 L 117.82 64.14 L 118.24 64.11 L 118.74 64.11 L 119.32 64.15 L 119.92 64.19 L 120.39 64.21 L 120.74 64.2 L 121.0 64.16 L 121.18 64.1 L 121.29 64.03 L 121.36 63.94 L 121.41 63.85 L 121.44 63.75 L 121.48 63.65 L 121.54 63.56 L 121.65 63.47 L 121.12 63.4 L 120.62 63.32 L 120.14 63.24 L 119.67 63.16 L 119.22 63.07 L 118.77 62.98 L 118.33 62.89 L 117.89 62.8 L 117.44 62.71 L 116.98 62.62 L 116.51 62.53 L 116.02 62.45 L 115.7 62.4 L 115.4 62.35 L 115.11 62.3 L 114.83 62.26 L 114.55 62.22 L 114.27 62.18 L 113.97 62.14 L 113.66 62.1 L 113.33 62.05 L 112.97 61.99 L 112.58 61.93 L 112.14 61.86 L 111.65 61.78 L 111.11 61.69 L 110.78 61.62 L 110.44 61.56 L 110.1 61.48 L 109.76 61.4 L 109.42 61.31 L 109.07 61.22 L 108.72 61.12 L 108.37 61.02 L 108.0 60.91 L 107.63 60.8 L 107.26 60.69 L 106.87 60.57 L 106.49 60.45 L 106.09 60.33 L 105.68 60.21 L 105.27 60.09 L 104.84 59.97 L 104.41 59.85 L 103.96 59.74 L 103.51 59.62 L 103.04 59.51 L 102.56 59.4 L 102.07 59.29 L 101.57 59.19 L 101.04 59.09 L 100.5 58.99 L 99.95 58.88 L 99.39 58.78 L 98.83 58.67 L 98.27 58.56 L 97.7 58.46 L 97.13 58.35 L 96.55 58.24 L 95.98 58.12 L 95.42 58.01 L 94.85 57.89 L 94.29 57.77 L 93.74 57.65 L 93.2 57.53 L 92.66 57.4 L 92.14 57.27 L 91.63 57.14 L 91.13 57.01 L 90.65 56.87 L 90.18 56.73 L 89.73 56.59 L 89.31 56.44 L 88.9 56.29 L 88.47 56.13 L 88.0 55.97 L 87.5 55.82 L 86.96 55.68 L 86.41 55.53 L 85.84 55.39 L 85.25 55.24 L 84.66 55.09 L 84.07 54.95 L 83.49 54.8 L 82.91 54.65 L 82.36 54.49 L 81.83 54.33 L 81.34 54.16 L 80.72 54.01 L 80.09 53.86 L 79.45 53.72 L 78.78 53.59 L 78.11 53.45 L 77.41 53.32 L 76.71 53.19 L 75.99 53.06 L 75.25 52.93 L 74.51 52.81 L 73.77 52.68 L 73.01 52.56 L 72.25 52.44 L 71.48 52.31 L 70.72 52.19 L 69.94 52.06 L 69.17 51.93 L 68.33 51.79 L 67.47 51.64 L 66.63 51.48 L 65.84 51.32 L 65.16 51.16 L 64.64 51.01 L 64.3 50.88 L 64.22 50.76 L 64.42 50.68 L 64.96 50.62 L 64.42 50.43 L 64.05 50.28 L 63.85 50.17 L 63.8 50.11 L 63.89 50.09 L 64.11 50.1 L 64.45 50.14 L 64.88 50.21 L 65.4 50.3 L 66.01 50.41 L 66.67 50.53 L 67.38 50.67 L 68.13 50.82 L 68.9 50.97 L 69.69 51.11 L 70.47 51.26 L 71.24 51.4 L 71.98 51.53 L 72.7 51.65 L 73.37 51.75 L 73.98 51.84 L 74.53 51.89 L 75.0 51.93 L 75.39 51.93 L 75.71 51.88 L 75.8 51.77 L 75.71 51.6 L 75.5 51.41 L 75.22 51.2 L 74.91 50.98 L 74.64 50.78 L 74.46 50.62 L 74.42 50.51 L 74.58 50.47 L 74.99 50.52 L 75.71 50.66 L 76.03 50.87 L 76.43 51.07 L 76.89 51.26 L 77.4 51.44 L 77.94 51.62 L 78.51 51.79 L 79.08 51.97 L 79.63 52.14 L 80.16 52.31 L 80.65 52.48 L 81.08 52.66 L 81.44 52.84 L 81.72 53.03 L 81.89 53.22 L 82.59 53.37 L 83.29 53.52 L 83.98 53.66 L 84.67 53.81 L 85.36 53.95 L 86.04 54.09 L 86.73 54.23 L 87.4 54.38 L 88.08 54.51 L 88.75 54.65 L 89.42 54.79 L 90.08 54.93 L 90.74 55.06 L 91.4 55.2 L 92.05 55.33 L 92.69 55.47 L 93.34 55.6 L 93.97 55.73 L 94.6 55.87 L 95.23 56.0 L 95.86 56.13 L 96.47 56.26 L 97.08 56.39 L 97.69 56.52 L 98.29 56.65 L 98.88 56.78 L 99.47 56.9 L 100.06 57.03 L 100.63 57.16 L 101.2 57.29 L 101.76 57.42 L 102.32 57.55 L 102.87 57.67 L 103.42 57.8 L 103.95 57.93 L 104.5 58.06 L 105.06 58.18 L 105.63 58.31 L 106.2 58.43 L 106.78 58.55 L 107.36 58.67 L 107.94 58.79 L 108.52 58.9 L 109.1 59.02 L 109.67 59.13 L 110.24 59.25 L 110.8 59.36 L 111.36 59.47 L 111.91 59.59 L 112.45 59.71 L 112.97 59.82 L 113.49 59.94 L 113.98 60.06 L 114.46 60.18 L 114.93 60.3 L 115.57 60.32 L 116.17 60.31 L 116.74 60.28 L 117.26 60.22 L 117.75 60.14 L 118.19 60.04 L 118.6 59.93 L 118.97 59.81 L 119.29 59.68 L 119.58 59.55 L 119.82 59.42 L 120.02 59.3 L 120.17 59.18 L 120.28 59.08 L 120.46 58.95 L 120.75 58.82 L 121.14 58.71 L 121.6 58.61 L 122.12 58.51 L 122.7 58.42 L 123.29 58.33 L 123.9 58.24 L 124.5 58.15 L 125.07 58.05 L 125.6 57.95 L 126.07 57.84 L 126.57 57.73 L 127.11 57.62 L 127.69 57.52 L 128.31 57.42 L 128.94 57.32 L 129.58 57.23 L 130.22 57.13 L 130.84 57.04 L 131.45 56.94 L 132.02 56.85 L 132.55 56.74 L 133.02 56.63 L 133.46 56.5 L 133.83 56.36 L 134.13 56.22 L 134.38 56.07 L 134.57 55.92 L 134.7 55.76 L 134.78 55.6 L 134.81 55.43 L 134.78 55.26 L 134.72 55.09 L 134.61 54.91 L 134.47 54.74 L 134.29 54.56 L 134.07 54.38 L 133.83 54.2 L 133.55 54.03 L 133.26 53.85 L 132.98 53.7 L 132.7 53.54 L 132.41 53.38 L 132.13 53.22 L 131.86 53.05 L 131.58 52.89 L 131.3 52.72 L 131.03 52.55 L 130.77 52.38 L 130.52 52.2 L 130.27 52.03 L 130.03 51.85 L 129.8 51.67 L 129.58 51.48 L 129.38 51.3 L 129.19 51.11 L 129.02 50.92 L 128.86 50.73 L 128.72 50.53 L 128.6 50.33 L 128.51 50.13 L 128.43 49.92 L 128.37 49.71 L 128.35 49.5 L 128.31 49.27 L 128.24 49.03 L 128.14 48.78 L 128.02 48.54 L 127.89 48.29 L 127.75 48.05 L 127.62 47.79 L 127.5 47.54 L 127.4 47.28 L 127.32 47.03 L 127.28 46.77 L 127.29 46.5 L 127.36 46.24 L 127.49 45.98 L 128.37 46.05 L 129.12 46.16 L 129.77 46.3 L 130.33 46.46 L 130.85 46.64 L 131.34 46.82 L 131.83 47.0 L 132.33 47.18 L 132.89 47.34 L 133.52 47.48 L 134.25 47.59 L 135.1 47.68 L 135.99 47.75 L 136.8 47.85 L 137.55 47.96 L 138.25 48.1 L 138.9 48.24 L 139.52 48.4 L 140.1 48.56 L 140.68 48.73 L 141.24 48.91 L 141.81 49.08 L 142.43 49.25 L 142.96 49.38 L 143.42 49.47 L 143.81 49.52 L 144.13 49.53 L 144.4 49.52 L 144.61 49.47 L 144.79 49.4 L 144.92 49.31 L 145.02 49.2 L 145.09 49.07 L 145.14 48.93 L 145.18 48.78 L 145.2 48.62 L 145.22 48.46 L 145.24 48.29 L 145.26 48.13 L 145.33 47.89 L 145.41 47.64 L 145.52 47.39 L 145.66 47.13 L 145.82 46.88 L 146.0 46.63 L 146.21 46.37 L 146.45 46.11 L 146.7 45.85 L 146.99 45.59 L 147.3 45.33 L 147.63 45.07 L 147.99 44.8 L 148.37 44.54 L 148.78 44.27 L 149.21 44.0 L 149.67 43.73 L 150.15 43.46 L 150.66 43.19 L 151.19 42.92 L 151.52 42.6 L 151.84 42.28 L 152.14 41.96 L 152.42 41.63 L 152.68 41.3 L 152.93 40.96 L 153.15 40.62 L 153.35 40.28 L 153.53 39.93 L 153.68 39.58 L 153.82 39.22 L 153.93 38.87 L 154.01 38.5 L 154.06 38.13 L 154.09 37.76 L 154.09 37.39 L 154.06 37.01 L 154.0 36.63 L 153.91 36.25 L 153.79 35.86 L 153.84 35.48 L 153.91 35.1 L 154.01 34.72 L 154.13 34.33 L 154.26 33.93 L 154.41 33.53 L 154.58 33.13 L 154.76 32.72 L 154.97 32.3 L 155.18 31.88 L 155.41 31.46 L 155.65 31.03 L 155.9 30.59 L 156.16 30.15 L 156.44 29.71 L 156.71 29.26 L 157.0 28.8 L 157.3 28.33 L 157.59 27.86 L 157.9 27.39 L 158.2 26.9 L 158.51 26.41 L 158.83 25.92 L 159.14 25.42 L 159.44 24.91 L 159.74 24.39 L 160.04 23.87 L 160.33 23.34 L 160.63 22.8 L 161.16 22.25 L 161.58 21.7 L 161.9 21.14 L 162.14 20.58 L 162.34 20.01 L 162.48 19.43 L 162.61 18.85 L 162.72 18.25 L 162.85 17.65 L 163.03 17.03 L 163.25 16.41 L 163.56 15.77 L 163.97 15.11 L 164.49 14.45 L 164.54 13.83 L 164.43 13.22 L 164.23 12.61 L 163.96 12.0 L 163.66 11.39 L 163.34 10.78 L 163.08 10.15 L 162.89 9.52 L 162.81 8.88 L 162.89 8.23 L 163.16 7.56 L 163.67 6.86 L 163.98 6.18 L 164.36 5.43 L 164.83 4.63 L 165.4 3.82 L 166.1 3.01 L 166.92 2.23 L 167.9 1.53 L 169.04 0.92 L 170.34 0.44 L 171.84 0.12 L 173.51 0.0 L 175.38 0.1 L 176.83 0.13 L 178.04 0.34 L 179.01 0.71 L 179.75 1.22 L 180.29 1.83 L 180.63 2.51 L 180.81 3.24 L 180.85 3.98 L 180.76 4.73 L 180.57 5.46 L 180.3 6.14 L 179.97 6.75 L 179.77 7.42 L 179.42 8.12 L 178.99 8.82 L 178.5 9.52 L 178.02 10.22 L 177.58 10.9 L 177.22 11.56 L 176.98 12.18 L 176.9 12.77 L 177.04 13.31 L 177.41 13.81 L 178.06 14.25 L 179.24 14.46 L 180.09 14.83 L 180.6 15.3 L 180.81 15.86 L 180.74 16.46 L 180.4 17.08 L 179.84 17.68 L 179.04 18.24 L 178.05 18.73 L 176.87 19.13 L 175.53 19.41 L 174.02 19.55 L 173.2 20.09 L 172.55 20.63 L 172.05 21.19 L 171.68 21.74 L 171.42 22.29 L 171.25 22.84 L 171.15 23.39 L 171.1 23.93 L 171.08 24.46 L 171.07 24.99 L 171.06 25.5 L 171.03 26.01 L 170.97 26.5 L 170.85 26.98 L 170.85 27.48 L 170.87 27.98 L 170.9 28.46 L 170.95 28.94 L 171.01 29.42 L 171.06 29.89 L 171.11 30.35 L 171.15 30.8 L 171.17 31.25 L 171.18 31.7 L 171.15 32.14 L 171.1 32.58 L 171.02 33.01 L 170.9 33.44 L 170.73 33.86 L 170.52 34.28 L 170.26 34.7 L 169.95 35.12 L 169.57 35.53 L 169.13 35.94 L 168.8 36.31 L 168.44 36.67 L 168.07 37.03 L 167.7 37.39 L 167.35 37.74 L 167.02 38.09 L 166.72 38.43 L 166.46 38.77 L 166.26 39.1 L 166.1 39.43 L 166.02 39.75 L 166.02 40.07 L 166.1 40.38 L 166.28 40.69 L 166.05 40.99 L 165.85 41.29 L 165.66 41.59 L 165.48 41.88 L 165.32 42.17 L 165.16 42.46 L 165.02 42.75 L 164.89 43.03 L 164.76 43.31 L 164.65 43.58 L 164.55 43.85 L 164.45 44.12 L 164.36 44.39 L 164.27 44.66 L 164.19 44.92 L 164.12 45.18 L 164.05 45.44 L 163.98 45.69 L 163.92 45.94 L 163.87 46.19 L 163.81 46.44 L 163.75 46.68 L 163.7 46.93 L 163.65 47.17 L 163.59 47.41 L 163.54 47.64 L 163.48 47.88 L 163.43 48.11 L 163.37 48.34 L 163.32 48.57 L 163.26 48.79 L 163.19 49.02 L 163.12 49.24 L 163.05 49.46 L 162.98 49.68 L 162.89 49.9 L 162.81 50.11 L 162.72 50.33 L 162.62 50.54 L 162.52 50.75 L 162.41 50.96 L 162.29 51.16 L 162.25 51.39 L 162.19 51.61 L 162.09 51.84 L 161.97 52.06 L 161.85 52.28 L 161.74 52.51 L 161.65 52.72 L 161.58 52.94 L 161.54 53.14 L 161.55 53.35 L 161.62 53.54 L 161.75 53.73 L 162.27 53.85 L 162.81 53.98 L 163.33 54.11 L 163.85 54.23 L 164.37 54.36 L 164.86 54.49 L 165.33 54.62 L 165.77 54.76 L 166.19 54.9 L 166.57 55.03 L 166.92 55.18 L 167.22 55.33 L 167.47 55.48 L 167.67 55.64 L 167.82 55.81 L 167.9 55.98 L 167.93 56.16 L 168.01 56.31 L 168.08 56.46 L 168.15 56.62 L 168.22 56.77 L 168.3 56.92 L 168.37 57.07 L 168.44 57.21 L 168.51 57.36 L 168.58 57.51 L 168.65 57.65 L 168.72 57.8 L 168.78 57.94 L 168.85 58.08 L 168.92 58.22 L 168.98 58.36 L 169.05 58.5 L 169.12 58.64 L 169.18 58.78 L 169.25 58.91 L 169.31 59.05 L 169.38 59.19 L 169.44 59.32 L 169.5 59.45 L 169.57 59.58 L 169.65 59.72 L 169.63 59.86 L 169.54 60.0 L 169.41 60.14 L 169.25 60.29 L 169.1 60.43 L 169.1 60.43" id="path_0"/>
  </g>
</svg>
